<?xml version="1.0" encoding="UTF-8" standalone="no"?>
<!-- Created with Inkscape (http://www.inkscape.org/) -->

<svg
   xmlns:dc="http://purl.org/dc/elements/1.1/"
   xmlns:cc="http://creativecommons.org/ns#"
   xmlns:rdf="http://www.w3.org/1999/02/22-rdf-syntax-ns#"
   xmlns:svg="http://www.w3.org/2000/svg"
   xmlns="http://www.w3.org/2000/svg"
   xmlns:xlink="http://www.w3.org/1999/xlink"
   version="1.1"
   width="4000"
   height="4000"
   id="svg2">
  <defs
     id="defs4" />
  <metadata
     id="metadata7">
    <rdf:RDF>
      <cc:Work
         rdf:about="">
        <dc:format>image/svg+xml</dc:format>
        <dc:type
           rdf:resource="http://purl.org/dc/dcmitype/StillImage" />
        <dc:title></dc:title>
      </cc:Work>
    </rdf:RDF>
  </metadata>
  <g
     transform="translate(0,2947.6379)"
     id="layer1">
    <path
       d="M 110,3 C 109.8791,2.99298 109.79347,3.01917 109.71875,3.09375 107.46584,5.34235 82.137234,46.174 53.4375,93.8125 l -52.1875,86.625 35.90625,3.8125 35.90625,3.84375 3.875,1865.65625 3.84375,1865.625 1865.37495,3.8438 1865.375,3.8437 2.375,37.0625 c 2.3063,36.0832 2.8011,36.7793 19.2188,26.4062 9.2741,-5.8596 50.6157,-31.17 91.8438,-56.25 41.2279,-25.0799 74.9769,-47.7598 75,-50.375 0.048,-5.7038 -167.5386,-106.5624 -177.0626,-106.5624 -3.6559,-1e-4 -7.699,14.6787 -9,32.625 l -2.375,32.6562 -1830.75,0 -1830.7812,0 -1.9375,-1818.7812 c -1.42656,-1338.04099 0.35492,-1821.53435 6.71875,-1829.18755 4.75761,-5.7216 20.33534,-10.40625 34.625,-10.40625 14.28966,0 25.96875,-3.79885 25.96875,-8.46875 C 215.375,163.39043 117.61675,3.4421142 110,3 z m 3529.5,2206.3438 c -8.435,2.1971 -171.6696,182.2449 -367.0625,404.9687 -283.7688,323.4613 -364.1845,410.7881 -376.2813,408.5625 -8.4615,-1.5569 -156.4789,-91.5605 -328.9062,-200 -172.4274,-108.4395 -315.6278,-197.1562 -318.25,-197.1562 -2.6223,0 -212.1515,107.4252 -465.625,238.7187 -253.4734,131.2935 -465.0566,237.0617 -470.1875,235.0313 -5.1308,-2.0304 -120.0536,-99.1026 -255.375,-215.7188 C 922.49112,2767.1339 808.61738,2672.7758 804.75,2674.0625 c -8.31047,2.7648 -557.91296,1064.2852 -558.3125,1078.3437 -0.21823,7.6778 341.68826,9.234 1697.7813,7.6876 l 1698.0937,-1.9376 1.9687,-771.1562 c 1.0782,-424.1446 -0.9547,-774.0866 -4.5,-777.625 -0.055,-0.055 -0.1473,-0.066 -0.2812,-0.031 z"
       transform="translate(0,-2947.6379)"
       id="path3586"
       style="fill:#000000" />
  </g>
</svg>
