<?xml version="1.0" encoding="UTF-8" standalone="no"?>
<!-- Created with Inkscape (http://www.inkscape.org/) -->

<svg
   xmlns:dc="http://purl.org/dc/elements/1.1/"
   xmlns:cc="http://creativecommons.org/ns#"
   xmlns:rdf="http://www.w3.org/1999/02/22-rdf-syntax-ns#"
   xmlns:svg="http://www.w3.org/2000/svg"
   xmlns="http://www.w3.org/2000/svg"
   xmlns:xlink="http://www.w3.org/1999/xlink"
   version="1.1"
   width="4000"
   height="4000"
   id="svg2">
  <defs
     id="defs4" />
  <metadata
     id="metadata7">
    <rdf:RDF>
      <cc:Work
         rdf:about="">
        <dc:format>image/svg+xml</dc:format>
        <dc:type
           rdf:resource="http://purl.org/dc/dcmitype/StillImage" />
        <dc:title></dc:title>
      </cc:Work>
    </rdf:RDF>
  </metadata>
  <g
     transform="translate(0,2947.6377)"
     id="layer1">
    <path
       d="m 108.375,4.625 c -0.56773,0.024377 -0.875,0.6027469 -0.875,1.8125 0,8.9917 -67.092434,124.83735 -96.84375,167.21875 -11.43031631,16.2827 -11.11097769,16.51595 18.1875,12.59375 21.705694,-2.9057 33.338763,-0.487 42.71875,8.875 11.998704,11.9758 12.875,140.96103 12.875,1862.9062 l 0,1850 1853.5937,0 c 1726.1231,1e-4 1854.4811,0.9103 1866.5,12.9063 9.6003,9.5818 11.9163,21.4761 9.0938,46.4687 l -3.7812,33.5938 16.375,-14.6562 c 18.3225,-16.3976 138.9747,-88.5411 161.2812,-96.4376 11.9181,-4.219 8.6573,-8.1479 -19.1875,-23.125 -18.4563,-9.9271 -59.4864,-34.1263 -91.1563,-53.7812 l -57.5937,-35.75 -4.4375,31.5625 c -2.4429,17.3597 -9.3414,34.6932 -15.3438,38.5 -13.8578,8.7889 -3642.51857,5.6833 -3651.3437,-3.125 -8.82512,-8.8082 -11.93074,-3630.51255 -3.125,-3644.34375 3.81415,-5.9909 21.05535,-12.90555 38.3125,-15.34375 L 215,180.0625 175.65625,114.9375 C 154.01465,79.1138 129.8308,37.78225 121.90625,23.09375 115.71519,11.618281 110.40259,4.5379401 108.375,4.625 z m 2075.5625,799.96875 c -170.1549,0 -314.8207,2.09795 -321.5,4.65625 -11.0153,4.2188 -12.1563,140.5241 -12.1563,1466.1562 0,803.8276 2.3585,1463.8327 5.2188,1466.6876 2.8604,2.8548 150.5609,4.2863 328.2188,3.1874 l 323,-2 1.9374,-1458.9374 C 2510.0813,1212.3316 2508.3153,822.6325 2501.9688,815 c -7.0073,-8.4271 -67.0491,-10.40625 -318.0313,-10.40625 z m 798.7813,406.12505 c -288.9584,0 -325.1647,1.3366 -329.3126,12.125 -6.092,15.845 -6.092,2496.3111 0,2512.1562 4.1478,10.7884 40.3542,12.125 329.3126,12.125 288.9583,0 325.1646,-1.3366 329.3124,-12.125 6.0921,-15.8451 6.0921,-2496.3111 0,-2512.1562 -4.1478,-10.7885 -40.3541,-12.125 -329.3124,-12.125 z m -1714.25,399.8437 c -145.503,-0.1263 -207.7247,2.0875 -213.8438,7.1563 -8.7717,7.2659 -10.4688,181.3023 -10.4688,1063.9374 1e-4,580.3908 2.3271,1057.5827 5.1876,1060.4376 2.8603,2.8548 150.5608,4.2863 328.2187,3.1874 l 323,-2 0,-1065.125 0,-1065.125 -317.7187,-2 c -42.782,-0.2695 -80.7974,-0.4396 -114.375,-0.4687 z m -1018.93755,684.4687 -2,716.4688 c -1.08912,394.0613 -0.31113,720.811 1.71875,726.125 2.90591,7.6092 72.71405,9.2303 328.28125,7.6562 l 324.59375,-2 0,-724.125 0,-724.125 -326.3125,0 -326.28125,0 z"
       transform="translate(0,-2947.6377)"
       id="path3055"
       style="fill:#000000" />
  </g>
</svg>
