<?xml version="1.0" encoding="UTF-8" standalone="no"?>
<!-- Created with Inkscape (http://www.inkscape.org/) -->

<svg
   xmlns:dc="http://purl.org/dc/elements/1.1/"
   xmlns:cc="http://creativecommons.org/ns#"
   xmlns:rdf="http://www.w3.org/1999/02/22-rdf-syntax-ns#"
   xmlns:svg="http://www.w3.org/2000/svg"
   xmlns="http://www.w3.org/2000/svg"
   xmlns:xlink="http://www.w3.org/1999/xlink"
   version="1.1"
   width="4000"
   height="4000"
   id="svg2">
  <defs
     id="defs4" />
  <metadata
     id="metadata7">
    <rdf:RDF>
      <cc:Work
         rdf:about="">
        <dc:format>image/svg+xml</dc:format>
        <dc:type
           rdf:resource="http://purl.org/dc/dcmitype/StillImage" />
        <dc:title></dc:title>
      </cc:Work>
    </rdf:RDF>
  </metadata>
  <g
     transform="translate(0,2947.6379)"
     id="layer1">
    <path
       d="m 174.75,81.78125 c -10.93237,0.195 -95.015418,146.3785 -89.40625,155.4375 2.618788,4.2294 16.27282,7.6875 30.34375,7.6875 l 25.5625,0 0,1798.12495 c 0,1388.6622 2.04732,1800.1852 8.9375,1807.0626 6.89009,6.8773 418.33561,8.9062 1806.6875,8.9062 l 1797.7812,0 0,24.75 c 0,13.6055 2.2113,26.9352 4.9376,29.6562 2.726,2.7212 6.8729,4.9688 9.2187,4.9688 7.8777,0 156.8437,-92.5727 156.8437,-97.4688 0,-9.1286 -155.5456,-96.7407 -163.2812,-91.9687 -4.2521,2.6231 -7.7188,16.2677 -7.7188,30.3125 l 0,25.5312 -1773.25,0 -1773.24995,0 1.875,-1768.0937 1.875,-1768.09375 L 236.5,246.25 c 13.52443,-1.2965 26.23345,-6.66095 28.25,-11.90625 4.33567,-11.2776 -79.1277,-152.7564 -90,-152.5625 z M 2522.3438,588.4375 c -127.6387,-1.18187 -220.42,150.99756 -353.4688,558.125 -62.0052,189.7352 -104.7829,340.5569 -243.1562,857.1563 -211.8186,790.7983 -305.1424,1075.5938 -397.4376,1213 -24.7038,36.7784 -34.2827,45.2859 -53.1874,47.125 -19.7316,1.9194 -28.4857,-3.6838 -60.5938,-38.75 -95.2664,-104.0433 -198.7129,-368.117 -370.7812,-946.625 C 830.19242,1560.5758 749.6527,1323.2154 705.59375,1282 c -27.86643,-26.068 -57.83839,-26.4672 -87.9375,-1.1875 -30.19045,25.3567 -30.19102,57.6185 -0.0312,130.0313 41.9192,100.6469 146.25221,422.4546 245.125,756.125 203.32875,686.1821 294.32675,936.0623 397.18755,1090.5 45.3464,68.0841 113.7502,130.5923 158.5313,144.875 122.6189,39.1082 211.3988,-37.2513 310.2812,-266.9063 81.2394,-188.6789 164.2807,-462.4802 345.5312,-1139.1563 211.8184,-790.7983 305.1461,-1075.59375 397.4376,-1212.99995 24.7038,-36.7785 34.2827,-45.286 53.1874,-47.125 19.7316,-1.9195 28.4856,3.6838 60.5938,38.75 95.2664,104.0433 198.7127,368.11685 370.7812,946.62495 213.5263,717.8929 294.0662,955.2534 338.125,996.4688 27.8663,26.068 57.8073,26.4672 87.9063,1.1875 30.1945,-25.3567 30.2223,-57.6185 0.062,-130.0313 -41.9192,-100.6469 -146.2522,-422.4545 -245.125,-756.125 C 2967.0481,1258.6438 2895.0257,1046.8503 2810.4688,872 2731.646,709.0071 2655.691,620.14085 2575.1875,596.78125 c -18.3467,-5.32364 -35.9006,-8.18686 -52.8437,-8.34375 z"
       transform="translate(0,-2947.6379)"
       id="path3841"
       style="fill:#000000" />
  </g>
</svg>
