<?xml version="1.0" encoding="UTF-8" standalone="no"?>
<!-- Created with Inkscape (http://www.inkscape.org/) -->

<svg
   xmlns:dc="http://purl.org/dc/elements/1.1/"
   xmlns:cc="http://creativecommons.org/ns#"
   xmlns:rdf="http://www.w3.org/1999/02/22-rdf-syntax-ns#"
   xmlns:svg="http://www.w3.org/2000/svg"
   xmlns="http://www.w3.org/2000/svg"
   version="1.1"
   width="4000"
   height="4000"
   id="svg2">
  <defs
     id="defs4" />
  <metadata
     id="metadata7">
    <rdf:RDF>
      <cc:Work
         rdf:about="">
        <dc:format>image/svg+xml</dc:format>
        <dc:type
           rdf:resource="http://purl.org/dc/dcmitype/StillImage" />
        <dc:title></dc:title>
      </cc:Work>
    </rdf:RDF>
  </metadata>
  <path
     d="m 3369.6044,0.16907749 c -2.9394,0.292 -5.9674,1.23120001 -9.2018,2.32130001 -17.889,6.0295 -764.6158,182.3838025 -1659.4112,391.9478025 -894.79566,209.5639 -1645.905356,386.2913 -1669.307436,392.6619 -54.37672,14.8028 -35.7357999,84.684 32.81324,122.6734 64.518156,35.7556 95.343836,173.93312 50.869156,228.56172 -17.262276,21.2034 -31.157196,62.2255 -30.729836,91.0676 0.42716,28.8421 100.122156,573.9042 221.358996,1211.1988 201.84602,1061.026 223.88092,1160.703 264.58912,1183.7 24.45096,13.8128 52.0081,38.316 61.1125,54.2838 27.5902,48.388 19.3448,174.6352 -14.23648,215.8832 -17.37382,21.3408 -26.46066,54.0068 -20.1393,72.3188 6.3214,18.3112 23.27884,33.2126 37.67444,33.2126 14.39554,0 773.6517,-175.388 1687.3634,-389.8046 913.7116,-214.417 1665.1232,-389.8054 1669.6544,-389.8054 4.531,0 7.9864,-24.5032 7.9864,-54.2832 0,-38.53 -10.4276,-54.1048 -36.4594,-54.1048 -50.2262,0 -73.541,-38.1092 -89.585,-146.244 -10.9106,-73.534 -7.3612,-94.6284 17.3614,-105.174 17.0124,-7.2568 30.73,-35.4892 30.73,-62.8544 0,-37.1924 -377.378,-2074.38132 -437.857,-2363.47172 -5.46,-26.1001 -30.7434,-52.3149 -57.64,-59.8189 -37.153,-10.3654 -51.353,-33.6303 -64.932,-105.1741 -14.7264,-77.5902 -11.6274,-99.3567 20.1394,-138.9227 42.4676,-52.894203 31.9382,-134.5518025 -12.153,-130.17310251 z M 3068.556,190.87528 c 11.5448,0.4549 21.9724,4.5256 32.1188,11.6067 38.2456,26.6917 76.1372,195.2684 50.001,222.312 -34.5198,35.7183 -98.2102,44.5823 -128.9958,17.8564 -17.2162,-14.9459 -37.0284,-68.5032 -44.2718,-118.9236 -12.1624,-84.6598 -9.1932,-93.587 38.716,-117.8521 20.7702,-10.5197 37.5884,-15.5844 52.4318,-14.9994 z m -384.3834,91.7819 c 35.8064,-1.0147 67.7416,18.6397 76.0434,52.8549 32.9556,135.822 31.7992,153.5897 -11.285,187.1349 -81.753,63.6524 -128.7726,26.6025 -145.8366,-114.8166 -8.6632,-71.7966 -3.7434,-89.5062 31.598,-110.531 16.0338,-9.5386 33.2046,-14.1811 49.4802,-14.6422 z m -364.244,79.1038 c 11.414,-6e-4 20.2632,7.7333 34.0284,23.0347 16.7144,18.5796 35.8742,70.9707 42.5356,116.6022 9.612,65.8422 4.5896,89.1119 -23.9588,112.3167 -81.026,65.8596 -139.458,17.2517 -149.8296,-124.2805 -4.23,-57.7192 4.774,-77.1726 47.9176,-104.6384 24.0386,-15.3032 37.8926,-23.0342 49.3068,-23.0347 z m -381.6057,96.0673 c 36.4498,1.4169 57.9649,31.34 73.9599,95.3531 27.4618,109.9034 25.5026,128.3185 -17.535,153.9221 -86.1067,51.2257 -135.285,9.9553 -151.9131,-127.8518 -9.5026,-78.7546 -5.6004,-89.0302 40.6259,-108.5668 18.029,-7.6197 33.5425,-11.8473 47.2233,-12.678 2.5651,-0.156 5.209,-0.2734 7.639,-0.1784 z m 1459.7541,43.5696 c 10.896,-0.6003 23.9444,2.6567 32.8134,8.7496 34.16,23.4682 440.0956,2190.91452 415.4602,2218.29932 -11.307,12.5688 -737.4134,191.2928 -1613.7504,397.3044 -876.3371,206.0112 -1608.30364,374.9472 -1626.42446,375.3412 -18.1208,0.396 -38.46198,-9.2828 -45.3135,-21.606 -13.07164,-23.5108 -418.419,-2134.9626 -418.58556,-2180.4437 -0.13,-35.5334 -51.372116,-22.4999 1685.45352,-428.19612 846.5732,-197.7469 1548.7632,-363.1129 1560.4508,-367.4845 2.922,-1.093 6.264,-1.7642 9.896,-1.9642 z m -1850.3876,57.4976 c 63.338,-1.6202 94.7937,48.5176 94.7937,150.7079 0,53.1307 -10.3068,84.8557 -30.7298,93.5675 -95.7415,40.8396 -152.8941,-28.4264 -140.4545,-169.8143 4.8736,-55.3918 15.0866,-67.4825 63.1958,-73.5683 4.5038,-0.5697 8.9722,-0.7848 13.1948,-0.8928 z m -381.0848,86.2463 c 6.7972,0.052 14.0073,0.6263 21.7019,1.6071 47.0541,5.9976 57.3547,20.0006 72.2238,98.7458 12.5025,66.2124 10.6275,100.6906 -7.1182,124.4591 -29.7239,39.8123 -105.0949,43.1813 -132.8154,5.8926 -11.0693,-14.8901 -26.0246,-62.0037 -33.1605,-104.4599 -13.6311,-81.0998 11.223,-123.675 72.5711,-126.0661 2.1909,-0.085 4.3316,-0.1956 6.5973,-0.1784 z m -373.44564,88.032 c 19.27544,0.023 37.75124,4.2347 48.26498,11.6067 41.20552,28.8926 68.13972,176.457 39.23692,215.1694 -12.15706,16.2831 -47.54622,29.4631 -78.64752,29.4631 -62.48694,0 -94.79374,-59.1114 -94.79374,-174.2783 0,-50.2815 10.72756,-66.0069 51.91084,-77.4968 10.6684,-2.9765 22.4633,-4.4784 34.02852,-4.4641 z m 2274.52904,1.7857 c -1.9016,-0.04 -4.0598,0.068 -6.4238,0.1784 -91.4138,4.3018 -511.0438,105.4868 -536.991,132.8515 -17.4534,18.4073 -37.4108,308.99102 -70.1404,1021.20682 -25.1604,547.5042 -42.057,1002.809 -37.6744,1011.743 4.3826,8.934 24.8526,16.0708 45.8344,16.0708 75.9854,0 495.9972,-110.6184 517.3724,-136.2444 23.719,-28.4356 119.8224,-2019.90882 98.6132,-2043.48502 -1.2232,-1.3598 -4.886,-2.2009 -10.5904,-2.3213 z m -2660.8222,78.9252 c 35.85874,-1.2414 73.29794,18.8639 86.63384,57.8547 28.8865,84.4562 23.22432,176.29932 -11.8058,191.24182 -47.04088,20.0658 -101.9477,15.8102 -115.80114,-9.1067 -31.59354,-56.82442 -45.77258,-159.03842 -27.43116,-197.13452 13.48862,-28.0163 40.51406,-41.8898 68.40426,-42.8553 z m 1910.4584,103.567 c -1.9388,0 -4.209,0.064 -6.5972,0.1784 -92.3476,4.4132 -523.2295,98.55632 -544.2828,121.95922 -8.5745,9.5313 -99.7994,1781.2107 -103.6481,2012.9507 -0.4356,26.2436 14.3089,37.8556 48.2649,37.8556 73.1935,0 502.935,-106.7908 523.9698,-130.1732 23.6708,-26.3128 114.276,-2017.02712 92.884,-2040.80662 -1.106,-1.2294 -4.7742,-1.9397 -10.5906,-1.9642 z M 1566.787,1088.5159 c -96.6277,1.5189 -531.4581,110.4942 -549.4912,142.1368 -9.2899,16.3012 -17.0494,63.6604 -17.0142,105.3527 0.044,41.6921 -18.57846,482.488 -41.494,979.423 -22.91534,496.9344 -36.44926,918.9132 -29.86176,937.996 7.23702,20.9632 25.69502,30.0536 46.35516,23.0348 18.8058,-6.3892 138.7282,-35.862 266.4989,-65.7116 127.7707,-29.8496 239.4193,-62.302 248.2693,-72.1396 20.6244,-22.926 113.4786,-2024.4136 94.9674,-2047.0565 -1.9192,-2.3474 -8.2336,-3.1927 -18.2296,-3.0356 z m 2024.35,1839.0293 c 33.6456,-0.6424 57.2094,17.1244 65.4526,51.248 29.8724,123.6576 30.1004,153.7764 1.2154,185.8848 -33.1694,36.8712 -81.8444,43.4076 -120.315,16.2496 -13.3126,-9.398 -29.773,-62.7568 -36.633,-118.388 -11.694,-94.842 -9.3914,-102.4152 38.5426,-122.6732 18.9404,-8.0048 36.4438,-12.0292 51.7374,-12.3212 z m -380.7376,90.532 c 11.716,-0.076 22.7356,2.9332 32.8132,8.9284 41.4208,24.6416 68.7864,164.8452 41.6676,213.0264 -10.6386,18.902 -41.952,37.378 -69.6196,41.07 -58.0586,7.7468 -88.302,-39.21 -96.3562,-149.458 -4.1514,-56.8236 4.3086,-76.7036 42.1884,-98.2104 15.8522,-9.0004 30.6222,-13.9276 44.2718,-14.9992 1.7062,-0.136 3.361,-0.348 5.0348,-0.356 z m -357.1258,96.4244 c 31.7014,0.54 39.2538,16.4068 54.515,77.4968 28.3704,113.5684 26.2696,131.7432 -17.0142,157.4936 -76.829,45.706 -115.1622,27.5924 -140.4546,-66.2472 -29.5326,-109.5712 -7.5102,-157.7888 76.5642,-167.136 10.276,-1.1424 19.0738,-1.732 26.3896,-1.6072 z m -409.384,86.6036 c 63.3378,-1.62 95.141,48.6964 95.141,150.8864 0,53.1308 -10.654,84.6778 -31.0772,93.389 -95.7414,40.8398 -152.8942,-28.4262 -140.4544,-169.8142 4.8734,-55.392 15.0864,-67.304 63.1958,-73.3896 4.5038,-0.57 8.9722,-0.9636 13.1948,-1.0716 z m -370.6678,94.8176 c 61.8514,0 67.2066,5.8808 83.5086,91.7816 12.584,66.3102 10.48,100.6556 -7.2918,124.4592 -13.508,18.0928 -49.4396,32.8558 -79.8628,32.8558 -48.5468,0 -58.132,-11.034 -77.6059,-91.425 -28.0676,-115.8678 -6.544,-157.6716 81.2519,-157.6716 z m -386.2933,78.2108 c 5.7551,0.04 11.7906,0.62 18.056,1.607 58.2282,9.1758 111.9367,172.7668 73.6127,224.0978 -13.126,17.581 -49.2821,31.963 -80.3837,31.963 -42.7729,0 -61.3235,-13.5114 -75.6961,-55.5334 -39.1069,-114.3384 -12.881,-197.7794 58.6818,-201.956 1.8508,-0.106 3.811,-0.194 5.7293,-0.18 z m -363.8968,84.4608 c 55.8817,0 91.1234,78.3642 81.9462,182.671 -5.0068,56.906 -14.5582,67.2902 -67.8834,73.0326 -65.8048,7.0864 -86.6061,-17.1386 -110.7663,-129.6376 -15.1396,-70.496 27.5518,-126.066 96.7035,-126.066 z m -378.48054,89.4602 c 11.61204,0.376 21.8953,4.203 31.94518,11.2498 43.65266,30.6082 73.25306,172.37 44.09816,211.4196 -31.87534,42.6936 -92.34394,55.5504 -126.56526,26.7844 -16.21508,-13.63 -35.1623,-66.0278 -42.18844,-116.2448 -11.7994,-84.335 -8.83224,-93.421 39.75784,-118.031 18.69756,-9.47 34.23322,-14.357 47.91772,-14.999 1.7105,-0.08 3.37598,-0.2332 5.0348,-0.18 z"
     id="path3031"
     style="fill:#000000" />
</svg>
