<?xml version="1.0" encoding="UTF-8" standalone="no"?>
<!-- Created with Inkscape (http://www.inkscape.org/) -->

<svg
   xmlns:dc="http://purl.org/dc/elements/1.1/"
   xmlns:cc="http://creativecommons.org/ns#"
   xmlns:rdf="http://www.w3.org/1999/02/22-rdf-syntax-ns#"
   xmlns:svg="http://www.w3.org/2000/svg"
   xmlns="http://www.w3.org/2000/svg"
   version="1.1"
   width="4000"
   height="4000"
   id="svg2">
  <defs
     id="defs4" />
  <metadata
     id="metadata7">
    <rdf:RDF>
      <cc:Work
         rdf:about="">
        <dc:format>image/svg+xml</dc:format>
        <dc:type
           rdf:resource="http://purl.org/dc/dcmitype/StillImage" />
        <dc:title></dc:title>
      </cc:Work>
    </rdf:RDF>
  </metadata>
  <g
     transform="matrix(8.2147128,0,0,8.214003,-3887.6199,-4060.6924)"
     id="layer1">
    <path
       d="m 133,22 c -96.71862,0 -108.02836,0.15335 -109.4375,1.5625 -2.32026,2.32026 -2.32026,31.55475 0,33.875 C 24.97164,58.84665 36.28138,59 133,59 c 96.71861,0 108.02836,-0.15335 109.4375,-1.5625 2.32026,-2.32025 2.32026,-31.55474 0,-33.875 C 241.02836,22.15335 229.71861,22 133,22 z m 0,0.90625 c 53.96462,0 107.94175,0.4105 108.8125,1.28125 1.67751,1.67751 1.67751,30.94749 0,32.625 -1.7415,1.7415 -215.8835,1.7415 -217.625,0 -1.67751,-1.67751 -1.67751,-30.94749 0,-32.625 C 25.05825,23.31675 79.035375,22.90625 133,22.90625 z m 0,1 c -53.46465,0 -106.9418,0.41055 -107.8125,1.28125 -1.67219,1.67219 -1.67219,28.95281 0,30.625 1.7414,1.7414 213.8836,1.7414 215.625,0 1.67219,-1.67219 1.67219,-28.95281 0,-30.625 C 239.9418,24.3168 186.46465,23.90625 133,23.90625 z M 133,66 c -96.71862,0 -108.02836,0.15335 -109.4375,1.5625 -2.32026,2.32026 -2.32026,31.55475 0,33.875 C 24.97164,102.84665 36.28138,103 133,103 c 96.71861,0 108.02836,-0.15335 109.4375,-1.5625 2.32026,-2.32025 2.32026,-31.55474 0,-33.875 C 241.02836,66.15335 229.71861,66 133,66 z m 0,0.90625 c 53.96462,0 107.94175,0.4105 108.8125,1.28125 1.67751,1.67751 1.67751,30.94749 0,32.625 -1.7415,1.7415 -215.8835,1.7415 -217.625,0 -1.67751,-1.67751 -1.67751,-30.94749 0,-32.625 C 25.05825,67.31675 79.035375,66.90625 133,66.90625 z m 0,1 c -53.46465,0 -106.9418,0.41055 -107.8125,1.28125 -1.67219,1.67219 -1.67219,28.95281 0,30.625 1.7414,1.7414 213.8836,1.7414 215.625,0 1.67219,-1.67219 1.67219,-28.95281 0,-30.625 C 239.9418,68.3168 186.46465,67.90625 133,67.90625 z M 464.1875,106.875 c -9.00148,0.0614 -18.11845,2.22501 -23.40625,6.125 -1.49023,1.09912 -3.06826,2 -3.5,2 -0.43174,0 -15.74348,14.96834 -34.03125,33.25 L 370,181.46875 358.25,169.75 C 351.77647,163.29334 345.79409,158 344.96875,158 343.01127,158 320,181.06872 320,183.03125 c 0,0.82706 4.5,5.98939 10,11.46875 5.5,5.47936 10,10.49907 10,11.15625 0,0.65718 -21.4875,22.88502 -47.75,49.40625 l -47.75,48.21875 -0.5,-7.6875 c -0.34611,-5.31994 -0.96167,-7.97022 -2,-8.625 C 241.08159,286.38959 198.74142,286.009 132.8125,286 c -96.56946,-0.0137 -107.8407,0.15319 -109.25,1.5625 -2.32026,2.32025 -2.32026,31.55475 0,33.875 C 24.97004,322.84504 35.54663,323 124.78125,323 l 99.625,0 -3.40625,3.5 -3.40625,3.5 -96.21875,0 c -86.15067,0 -96.4057,0.1557 -97.8125,1.5625 -1.29202,1.29201 -1.5751,4.27031 -1.5625,16.75 0.0084,8.34821 0.44735,15.8625 0.96875,16.6875 0.82503,1.30543 11.11839,1.56486 79.25,2 l 78.09375,0.5 c -3.7359,-1.63747 -21.51813,-1.5 -77.125,-1.5 -59.17778,0 -78.08723,-0.27473 -79,-1.1875 -1.67751,-1.67751 -1.67751,-30.94749 0,-32.625 C 25.10429,331.27072 48.2287,331 122.09375,331 l 96.6875,0 3.8125,-4.25 3.84375,-4.25 -100.375,-0.25 c -72.14946,-0.18317 -100.7508,-0.57168 -101.71875,-1.375 -1.81638,-1.50746 -1.95777,-30.88597 -0.15625,-32.6875 1.7415,-1.7415 215.8835,-1.7415 217.625,0 0.71416,0.71416 1.1875,4.15556 1.1875,8.5 0,4.015 0.39122,7.3125 0.875,7.3125 1.33432,0 72.16063,-70.93731 94.0625,-94.21875 l 4.40625,-4.71875 -10.75,-10.9375 C 322.46384,184.86003 320.95919,182.91514 321.8125,181.34375 323.40187,178.41692 343.55339,159 345,159 c 0.71627,0 6.56488,5.175 12.96875,11.5 6.40388,6.325 12.05943,11.5 12.5625,11.5 0.50308,0 15.76848,-14.77552 33.9375,-32.84375 18.16901,-18.06822 34.52748,-33.88529 36.34375,-35.125 C 447.11088,109.73222 453.79636,108 464,108 c 10.73522,0 16.82157,1.71135 24.28125,6.84375 7.38983,5.08433 16.14679,17.86804 18.28125,26.65625 1.09476,4.50745 0.94421,16.50626 -0.28125,20.8125 -2.972,10.44352 -5.68971,13.66264 -40.40625,48.28125 L 432,244.375 l 12,12.15625 c 6.60375,6.67976 12,12.77757 12,13.5625 C 456,271.68956 434.0404,294 432.46875,294 c -0.55078,0 -5.93751,-4.95 -11.96875,-11 -6.03124,-6.05 -11.43937,-11 -12,-11 -0.56063,0 -38.01375,37.01124 -83.25,82.25 L 243,436.5 l 0,7.5625 c 0,4.53713 -0.46615,8.02865 -1.1875,8.75 C 241.08977,453.53523 237.57548,454 233,454 c -7.47619,0 -7.66847,0.0494 -11.3125,3.78125 -2.03662,2.08569 -3.6875,4.11069 -3.6875,4.5 0,0.38931 5.0975,0.71875 11.3125,0.71875 7.45556,0 11.70826,0.39576 12.5,1.1875 1.67751,1.67751 1.67751,30.94749 0,32.625 -0.87886,0.87886 -9.08329,1.1875 -30.59375,1.1875 l -29.375,0 -4.65625,3.8125 c -2.57368,2.09917 -5.96162,4.34917 -7.5,5 C 167.77697,507.62077 158.71994,508 141.09375,508 115.95088,508 115.20684,507.9532 111.9375,505.75 110.092,504.50632 108.32302,502.36882 108,501 l -0.59375,-2.5 -40.875,-0.25 C 38.39285,498.07004 25.26557,497.64004 24.34375,496.875 23.33244,496.03568 23,492.02369 23,480.5 c 0,-11.52369 0.33244,-15.53568 1.34375,-16.375 0.92189,-0.7651 14.07867,-1.19503 42.25,-1.375 L 107.5,462.5 l 0,-4 0,-4 -40.90625,-0.25 c -28.17133,-0.17997 -41.32811,-0.6099 -42.25,-1.375 C 22.5346,451.37354 22.39235,421.98265 24.1875,420.1875 25.0907,419.2843 38.53563,419 78.5,419 l 53.09375,0 3.71875,-3.78125 c 2.03662,-2.08569 3.6875,-4.11069 3.6875,-4.5 C 139,410.32944 113.4275,410 82.1875,410 c -42.84444,0 -57.09484,-0.28234 -58,-1.1875 -1.67751,-1.67751 -1.67751,-30.94749 0,-32.625 C 25.09938,375.27562 43.29764,375 99.96875,375 l 74.59375,0 3.21875,-2.9375 c 2.41985,-2.21019 4.48477,-3.60639 2.65625,-4.5 l -3.40625,3.1875 -3.46875,3.25 -74.21875,0 c -66.12641,0 -74.38092,0.16216 -75.78125,1.5625 -2.32026,2.32025 -2.32026,31.55475 0,33.875 1.39157,1.39157 8.07505,1.5625 58.21875,1.5625 l 56.625,0 L 135,414.5 131.59375,418 78.375,418 c -47.05976,0 -53.42329,0.17329 -54.8125,1.5625 -2.32026,2.32025 -2.32026,31.55475 0,33.875 1.37738,1.37738 6.62554,1.5625 42.5,1.5625 l 40.9375,0 0,3.5 0,3.5 -40.9375,0 c -35.87446,0 -41.12262,0.18512 -42.5,1.5625 -2.32026,2.32025 -2.32026,31.55475 0,33.875 1.37722,1.37722 6.61418,1.5625 42.375,1.5625 l 40.8125,0 0.59375,2.96875 c 0.42143,2.10714 1.68102,3.51565 4.375,4.9375 3.49635,1.84533 5.76589,2.0217 30.0625,2.0625 29.12294,0.049 30.2956,-0.17978 36.65625,-6.875 L 181.375,499 l 29.75,0 c 25.70438,0 29.95438,-0.20438 31.3125,-1.5625 2.32026,-2.32025 2.32026,-31.55475 0,-33.875 C 241.19727,462.32227 238.49882,462 229.71875,462 l -11.125,0 L 222,458.5 c 3.30099,-3.4058 3.60079,-3.5 11.125,-3.5 10.14956,0 10.875,-0.71104 10.875,-10.8125 l 0,-7.6875 81.96875,-81.96875 81.96875,-81.96875 11.375,11.21875 C 425.56773,289.95281 431.44213,295 432.375,295 434.68329,295 457,272.68502 457,270.375 c 0,-1.01859 -5.381,-7.23999 -12.03125,-13.90625 L 432.9375,244.4375 465.53125,212.53125 C 494.76846,183.919 505,172.66758 505,169.125 c 0,-0.63804 0.40985,-1.91996 0.90625,-2.875 3.23616,-6.22621 3.74075,-15.67636 1.375,-25.75 -1.70352,-7.25381 -11.7364,-22.90199 -16.09375,-25.09375 -1.19051,-0.59883 -2.97122,-1.77859 -3.9375,-2.625 -0.96629,-0.84641 -4.47588,-2.48899 -7.8125,-3.65625 -4.49,-1.57075 -9.84911,-2.28682 -15.25,-2.25 z m -283.75,260.6875 0.0625,-0.0625 -0.1875,0 c 0.0409,0.0179 0.0875,0.0442 0.125,0.0625 z M 464,109 c -9.84284,0 -16.20495,1.94516 -24.28125,7.375 C 436.85157,118.30265 420.32173,134.07516 403,151.4375 385.67828,168.79984 370.85127,183 370.03125,183 c -0.82001,0 -6.77963,-5.26524 -13.25,-11.71875 L 345,159.53125 334,170.5 c -6.05039,6.03163 -11,11.6553 -11,12.5 0,0.8447 4.5,6.02064 10,11.5 5.5,5.47936 10,10.50251 10,11.15625 C 343,207.34721 245.05353,306 243.375,306 242.30916,306 242,304.17545 242,298.1875 c 0,-4.73333 -0.45929,-8.27179 -1.1875,-9 -1.7414,-1.7414 -213.8836,-1.7414 -215.625,0 -1.67219,1.67219 -1.67219,28.95281 0,30.625 0.91737,0.91737 24.83688,1.1875 101.46875,1.1875 55.5234,0 100.4531,0.39463 100.75,0.875 0.29481,0.47701 -1.5964,2.95628 -4.21875,5.53125 l -4.78125,4.6875 -95.8125,-0.0625 c -70.66881,-0.0539 -96.20007,0.21708 -97.21875,1.0625 -1.84346,1.52994 -2.01115,28.8951 -0.1875,30.71875 0.9129,0.9129 19.93333,1.1875 79.5,1.1875 48.95589,0 78.3125,0.34168 78.3125,0.9375 0,2.53261 -2.65563,6.26241 -5.8125,8.125 -3.46099,2.04204 -4.43135,2.06005 -76.96875,1.96875 -54.10505,-0.0681 -73.82055,0.21332 -74.84375,1.0625 -1.99542,1.65607 -1.99362,29.15794 0,30.8125 0.99928,0.82934 16.89448,1.06894 58.5,0.875 64.16644,-0.2991 60.76791,-0.77698 52.84375,7 L 132.4375,420 79.40625,420 c -39.89834,0 -53.3156,0.28435 -54.21875,1.1875 -1.78945,1.78945 -1.64808,29.19004 0.15625,30.6875 0.92189,0.7651 14.07867,1.19503 42.25,1.375 l 40.90625,0.25 0,5 0,5 -40.90625,0.25 c -28.17133,0.17997 -41.32811,0.6099 -42.25,1.375 -1.92221,1.59529 -1.92221,29.15471 0,30.75 0.92182,0.76504 14.0491,1.19504 42.1875,1.375 l 40.875,0.25 L 109,500 c 0.32302,1.36882 2.092,3.50632 3.9375,4.75 3.26575,2.20078 4.03769,2.24015 28.46875,2.21875 27.84999,-0.0244 30.00238,-0.42691 36.03125,-6.84375 L 180.375,497 210,497 c 21.69893,0 29.9332,-0.3082 30.8125,-1.1875 1.67219,-1.67219 1.67219,-28.95281 0,-30.625 C 240.01476,464.38976 235.65694,464 227.8125,464 219.23569,464 216,463.6623 216,462.78125 c 0,-0.66668 1.90423,-3.14168 4.21875,-5.5 L 224.40625,453 232,453 c 4.57139,0 8.08992,-0.46492 8.8125,-1.1875 0.72135,-0.72135 1.1875,-4.21287 1.1875,-8.75 l 0,-7.5625 82.25,-82.25 C 369.48625,308.01126 407.14022,271 407.9375,271 c 0.79728,0 6.57023,5.02873 12.8125,11.1875 l 11.34375,11.21875 11.6875,-11.71875 L 455.46875,270 443.25,257.75 c -11.88485,-11.91346 -13.78391,-14.77098 -10.84375,-16.4375 2.2159,-1.256 61.79863,-60.49955 65.78125,-65.40625 4.79625,-5.90913 8.6837,-17.61962 8.25,-24.90625 -0.59071,-9.92445 -1.94256,-14.02564 -7.21875,-22.125 C 489.93191,114.61901 479.99426,109 464,109 z m -331,1 c -96.71862,0 -108.02836,0.15335 -109.4375,1.5625 -2.32026,2.32025 -2.32026,31.55475 0,33.875 C 24.97164,146.84665 36.28138,147 133,147 c 96.71861,0 108.02836,-0.15335 109.4375,-1.5625 2.32026,-2.32025 2.32026,-31.55475 0,-33.875 C 241.02836,110.15335 229.71861,110 133,110 z m 0,0.90625 c 53.96462,0 107.94175,0.4105 108.8125,1.28125 1.67751,1.67751 1.67751,30.94749 0,32.625 -1.7415,1.7415 -215.8835,1.7415 -217.625,0 -1.67751,-1.67751 -1.67751,-30.94749 0,-32.625 0.87075,-0.87075 54.847875,-1.28125 108.8125,-1.28125 z m 0,1 c -53.46465,0 -106.9418,0.41055 -107.8125,1.28125 -1.67219,1.67219 -1.67219,28.95281 0,30.625 1.7414,1.7414 213.8836,1.7414 215.625,0 1.67219,-1.67219 1.67219,-28.95281 0,-30.625 C 239.9418,112.3168 186.46465,111.90625 133,111.90625 z M 133,154 c -96.71862,0 -108.02836,0.15335 -109.4375,1.5625 -2.32026,2.32025 -2.32026,31.55475 0,33.875 C 24.97164,190.84665 36.28138,191 133,191 c 96.71861,0 108.02836,-0.15335 109.4375,-1.5625 2.32026,-2.32025 2.32026,-31.55475 0,-33.875 C 241.02836,154.15335 229.71861,154 133,154 z m 0,0.90625 c 53.96462,0 107.94175,0.4105 108.8125,1.28125 1.67751,1.67751 1.67751,30.94749 0,32.625 -1.7415,1.7415 -215.8835,1.7415 -217.625,0 -1.67751,-1.67751 -1.67751,-30.94749 0,-32.625 0.87075,-0.87075 54.847875,-1.28125 108.8125,-1.28125 z m 0,1 c -53.46465,0 -106.9418,0.41055 -107.8125,1.28125 -1.67219,1.67219 -1.67219,28.95281 0,30.625 1.7414,1.7414 213.8836,1.7414 215.625,0 1.67219,-1.67219 1.67219,-28.95281 0,-30.625 C 239.9418,156.3168 186.46465,155.90625 133,155.90625 z M 133,198 c -96.71862,0 -108.02836,0.15335 -109.4375,1.5625 -2.32026,2.32025 -2.32026,31.55475 0,33.875 C 24.97164,234.84665 36.28138,235 133,235 c 96.71861,0 108.02836,-0.15335 109.4375,-1.5625 2.32026,-2.32025 2.32026,-31.55475 0,-33.875 C 241.02836,198.15335 229.71861,198 133,198 z m 0,0.90625 c 53.96462,0 107.94175,0.4105 108.8125,1.28125 1.67751,1.67751 1.67751,30.94749 0,32.625 -1.7415,1.7415 -215.8835,1.7415 -217.625,0 -1.67751,-1.67751 -1.67751,-30.94749 0,-32.625 0.87075,-0.87075 54.847875,-1.28125 108.8125,-1.28125 z m 0,1 c -53.46465,0 -106.9418,0.41055 -107.8125,1.28125 -1.67219,1.67219 -1.67219,28.95281 0,30.625 1.7414,1.7414 213.8836,1.7414 215.625,0 1.67219,-1.67219 1.67219,-28.95281 0,-30.625 C 239.9418,200.3168 186.46465,199.90625 133,199.90625 z M 351.96875,215 C 353.9583,215 399,260.01149 399,262 c 0,0.82192 -35.2112,36.71381 -78.25,79.75 L 242.5,420 l -35.625,0 -35.625,0 -4.15625,-4.53125 c -2.29402,-2.48873 -3.92519,-4.96373 -3.59375,-5.5 C 163.87424,409.36322 178.40567,409 201.84375,409 c 28.02076,0 38.07781,-0.29656 38.96875,-1.1875 1.67219,-1.67219 1.67219,-28.95281 0,-30.625 C 239.94784,376.32284 233.10139,376 216.3125,376 198.33476,376 193,375.71481 193,374.75 c 0,-0.68775 1.73853,-3.16275 3.875,-5.5 l 3.90625,-4.25 19.46875,0 c 15.39722,0 19.74742,-0.27992 20.65625,-1.375 0.78025,-0.9401 1.06361,-6.01013 0.875,-15.75 C 241.51385,334.06635 241.41307,333.44899 239.25,332.5 238.0125,331.95708 237,330.87344 237,330.09375 237,328.15219 350.0296,215 351.96875,215 z m 0.28125,1 c -1.11125,0 -113.35392,112.08911 -114,113.84375 -0.13957,0.37902 0.76043,1.11244 2,1.65625 2.17912,0.956 2.26374,1.51839 2.53125,16.375 0.18871,10.48051 -0.0912,15.80559 -0.875,16.75 -0.90804,1.09413 -5.29643,1.375 -20.9375,1.375 l -19.8125,0 -3.0625,3.90625 C 196.39753,372.0479 195,374.0729 195,374.40625 195,374.73961 205.2725,375 217.8125,375 c 16.4,0 23.13684,0.32434 24,1.1875 1.67751,1.67751 1.67751,30.94749 0,32.625 -0.89101,0.89101 -10.93333,1.1875 -39,1.1875 -20.79,0 -37.8125,0.32944 -37.8125,0.71875 0,0.38931 1.65088,2.41431 3.6875,4.5 l 3.71875,3.78125 34.53125,0 34.5625,0 78.25,-78.25 C 362.7888,297.71381 398,262.04683 398,261.5 398,260.03008 353.7275,216 352.25,216 z m -0.3125,0.5 22.78125,22.75 L 397.5,262 l -78,78 -78,78 -34.5625,0 -34.53125,0 -3.40625,-3.5 -3.40625,-3.5 37.625,0 c 32.87098,0 37.84587,-0.18961 39.21875,-1.5625 2.32026,-2.32025 2.32026,-31.55475 0,-33.875 C 241.10408,374.22908 237.52916,374 218.84375,374 l -22.03125,0 1.90625,-3.25 1.875,-3.25 20.75,-0.5 c 16.95827,-0.40894 20.91343,-0.77317 21.6875,-2 0.52053,-0.825 0.96075,-8.35268 0.96875,-16.71875 0.0144,-14.2777 -0.14232,-15.31124 -2.15625,-17.1875 l -2.125,-2 56.09375,-56.3125 L 351.9375,216.5 z M 133,242 c -96.71862,0 -108.02836,0.15335 -109.4375,1.5625 -2.32026,2.32025 -2.32026,31.55475 0,33.875 C 24.97164,278.84665 36.28138,279 133,279 c 96.71861,0 108.02836,-0.15335 109.4375,-1.5625 2.32026,-2.32025 2.32026,-31.55475 0,-33.875 C 241.02836,242.15335 229.71861,242 133,242 z m 0,0.90625 c 53.96462,0 107.94175,0.4105 108.8125,1.28125 1.67751,1.67751 1.67751,30.94749 0,32.625 -1.7415,1.7415 -215.8835,1.7415 -217.625,0 -1.67751,-1.67751 -1.67751,-30.94749 0,-32.625 0.87075,-0.87075 54.847875,-1.28125 108.8125,-1.28125 z m 0,1 c -53.46465,0 -106.9418,0.41055 -107.8125,1.28125 -1.67219,1.67219 -1.67219,28.95281 0,30.625 1.7414,1.7414 213.8836,1.7414 215.625,0 1.67219,-1.67219 1.67219,-28.95281 0,-30.625 -0.8707,-0.8707 -54.34785,-1.28125 -107.8125,-1.28125 z"
       transform="translate(451.42856,472.36218)"
       id="path3052"
       style="fill:#000000" />
  </g>
</svg>
