<?xml version="1.0" encoding="UTF-8" standalone="no"?>
<!-- Created with Inkscape (http://www.inkscape.org/) -->

<svg
   xmlns:dc="http://purl.org/dc/elements/1.1/"
   xmlns:cc="http://creativecommons.org/ns#"
   xmlns:rdf="http://www.w3.org/1999/02/22-rdf-syntax-ns#"
   xmlns:svg="http://www.w3.org/2000/svg"
   xmlns="http://www.w3.org/2000/svg"
   xmlns:xlink="http://www.w3.org/1999/xlink"
   version="1.1"
   width="4000"
   height="4000"
   id="svg2">
  <defs
     id="defs4" />
  <metadata
     id="metadata7">
    <rdf:RDF>
      <cc:Work
         rdf:about="">
        <dc:format>image/svg+xml</dc:format>
        <dc:type
           rdf:resource="http://purl.org/dc/dcmitype/StillImage" />
        <dc:title></dc:title>
      </cc:Work>
    </rdf:RDF>
  </metadata>
  <g
     transform="translate(0,2947.6379)"
     id="layer1">
    <path
       d="M 114.59375,5.21875 C 111.92394,5.1515556 109.25083,6.3355 106.125,8.6875 93.740357,18.0062 12.59375,153.4103 12.59375,164.75 c 0,4.8632 -3.2592877,12.07185 -7.21875,16.03125 -7.700931,7.701 4.2764176,12.16575 41.78125,15.59375 l 18.875,1.75 3.15625,1864.7812 3.125,1864.7813 1864.7813,3.125 1864.7812,3.1563 1.75,18.875 c 0.9485,10.3772 3.2252,25.6229 5.0625,33.9062 2.5085,11.3093 5.1255,13.2808 10.5313,7.875 3.9594,-3.9595 11.1679,-7.2188 16.0312,-7.2188 11.3396,0 146.7438,-81.1466 156.0625,-93.5312 5.3737,-7.1418 4.6486,-11.9259 -3.125,-20.1562 -18.3748,-19.4543 -171.4855,-108.0481 -177.0313,-102.4376 -2.9613,2.996 -6.2402,19.6107 -7.3124,36.9063 l -1.9688,31.4375 -1820.75,0 -1820.75,0 0,-1820.75 0,-1820.75 33.03125,-1.90625 c 25.83301,-1.4873 33,-4.1924 33,-12.375 0,-11.8755 -84.41648,-156.46605 -100.4375,-172.03125 -4.50263,-4.3745063 -7.94239,-6.5073573 -11.375,-6.59375 z M 3654.0312,531.75 c -10.6789,0.36427 -127.5111,41.7387 -265.7187,94.1875 -320.0938,121.4733 -314.2953,119.00595 -311.7187,134.03125 1.1162,6.5093 35.2928,40.7388 75.9374,76.0625 40.6448,35.3238 73.875,66.4026 73.875,69.0625 1e-4,8.3276 -924.3855,1097.93785 -933.0937,1099.87505 -4.5445,1.0109 -152.2499,-67.7582 -328.25,-152.8438 -229.8956,-111.1409 -323.0347,-153.2946 -330.7187,-149.6562 -16.4174,7.7735 -206.6563,242.3174 -206.6563,254.7812 0,9.6277 95.2579,80.2719 122.1563,90.5938 5.5461,2.1283 30.8467,-23.0635 69.6874,-69.4063 33.5438,-40.0225 64.2452,-72.6591 68.2188,-72.5 3.9738,0.159 148.7315,69.2626 321.6875,153.5313 172.9559,84.2685 317.7371,153.4604 321.75,153.7812 10.0203,0.8012 26.1876,-17.8429 554.4063,-638.9062 256.4765,-301.5573 468.8127,-549.8144 471.8437,-551.6876 3.031,-1.8732 38.1375,24.8286 78.0313,59.3126 39.8937,34.4841 76.605,62.6874 81.5624,62.6874 6.7351,0 25.243,-71.1369 73.1876,-281.43745 73.4175,-322.0334 74.0832,-325.4715 64.5312,-331.375 -0.1207,-0.0746 -0.3743,-0.1055 -0.7188,-0.0937 z M 682.0625,1553.4688 c -7.96617,0 -462.33291,538.2911 -489.96875,580.4687 -9.22593,14.0806 -9.78235,18.7596 -3.125,26.7813 17.17629,20.6961 105.80616,90.8437 114.78125,90.8437 5.20397,0 97.94435,-106.8245 206.0625,-237.4063 108.11814,-130.5817 199.93866,-237.1122 204.0625,-236.7187 4.12377,0.3934 475.2957,316.981 1047.0625,703.5313 571.7669,386.5501 1052.4657,711.0096 1068.2187,721 33.2945,21.1147 34.6746,21.3567 47.75,8.2812 5.4376,-5.4376 148.705,-185.0982 318.375,-399.2188 169.67,-214.1204 310.8803,-390.7696 313.7813,-392.5624 2.9011,-1.793 38.1109,23.6085 78.25,56.4374 71.044,58.1055 89.2416,68.0015 95.2187,51.8126 2.8755,-7.788 116.2188,-597.5732 116.2188,-604.75 0,-2.0522 -5.0621,-3.7188 -11.25,-3.7188 -12.3302,0 -559.7359,228.8296 -568.5938,237.6875 -10.2313,10.2313 1.9021,23.2438 79.9376,85.6875 43.7278,34.9908 76.2204,65.3718 74,69.1875 -6.8811,11.8237 -537.4941,689.1875 -539.875,689.1875 -1.2498,0 -483.7081,-325.4825 -1072.125,-723.2812 -588.4172,-397.7988 -1073.87086,-723.25 -1078.7813,-723.25 z m 537.4687,651.7812 -17.8437,18.4375 c -9.8184,10.1483 -169.6032,203.4242 -355.0625,429.5 -221.44416,269.9416 -337.1875,415.8631 -337.1875,425.0625 0,9.9502 15.01925,26.1847 51.875,56.0938 35.31041,28.655 56.37409,41.5682 65.9375,40.375 16.95035,-2.115 718.6562,-855.2264 718.6562,-873.7188 1e-4,-7.7555 -21.0644,-25.6418 -63.1874,-53.6875 l -63.1876,-42.0625 z"
       transform="translate(0,-2947.6379)"
       id="path3073"
       style="fill:#000000" />
  </g>
</svg>
