<?xml version="1.0" encoding="UTF-8" standalone="no"?>
<!-- Created with Inkscape (http://www.inkscape.org/) -->

<svg
   xmlns:dc="http://purl.org/dc/elements/1.1/"
   xmlns:cc="http://creativecommons.org/ns#"
   xmlns:rdf="http://www.w3.org/1999/02/22-rdf-syntax-ns#"
   xmlns:svg="http://www.w3.org/2000/svg"
   xmlns="http://www.w3.org/2000/svg"
   xmlns:xlink="http://www.w3.org/1999/xlink"
   version="1.1"
   width="4000"
   height="4000"
   id="svg2">
  <defs
     id="defs4" />
  <metadata
     id="metadata7">
    <rdf:RDF>
      <cc:Work
         rdf:about="">
        <dc:format>image/svg+xml</dc:format>
        <dc:type
           rdf:resource="http://purl.org/dc/dcmitype/StillImage" />
        <dc:title></dc:title>
      </cc:Work>
    </rdf:RDF>
  </metadata>
  <g
     transform="translate(0,2947.6379)"
     id="layer1">
    <path
       d="m 175.125,81.625 c -4.37063,0 -85.90625,139.90665 -85.90625,147.40625 0,4.1495 12.54043,8.57695 27.875,9.84375 l 27.875,2.3125 3.71875,1803.3437 3.71875,1803.3438 1802.96875,3.6875 1803,3.7187 2.3125,27.8438 c 1.2691,15.3061 5.8911,27.8125 10.2813,27.8125 10.149,0 147.1667,-83.7642 147.2187,-90 0.05,-5.965 -137.6121,-88.0937 -147.6563,-88.0937 -4.1573,-1e-4 -8.5746,12.5063 -9.8437,27.8124 l -2.3125,27.8438 -1776.9688,0 -1776.93745,0 -1.875,-1765.4688 c -1.37882,-1298.84392 0.31776,-1768.10225 6.46875,-1775.49995 4.5984,-5.5305 17.44583,-10.0625 28.53125,-10.0625 11.08542,0 22.10215,-1.95035 24.5,-4.34375 3.80547,-3.7984 -80.98237,-151.5 -86.96875,-151.5 z m 2318.2188,519.9375 c -13.6481,0.0723 -27.2653,3.4818 -37.125,10.375 -8.5248,5.9599 -20.1301,21.8221 -25.7813,35.25 -5.6511,13.4279 -214.3774,577.1148 -463.8437,1252.625 C 1642.565,2777.2246 1509.8498,3128 1501.9688,3128 c -7.607,0 -130.3601,-283.061 -395.4376,-911.8125 -211.43448,-501.5134 -391.92242,-919.7889 -401.06245,-929.5 -25.187,-26.7606 -66.48512,-24.4431 -91.4375,5.1563 -10.58656,12.558 -19.25,29.2693 -19.25,37.125 0,25.1509 854.44375,2042.9887 870.99995,2056.9374 18.7609,15.8059 56.9619,16.8647 78,2.1563 8.5249,-5.9599 20.1301,-21.8222 25.7813,-35.25 5.6511,-13.4279 214.3774,-577.1148 463.8437,-1252.625 C 2357.434,1222.7782 2490.1503,872 2498.0312,872 c 7.6056,0 130.5717,283.3525 395.9376,912.3438 211.7055,501.8012 392.1934,920.0767 401.0624,929.5 24.6865,26.2287 66.216,23.6379 90.9376,-5.6876 10.5866,-12.5579 19.25,-29.2527 19.25,-37.0937 -1e-4,-25.5221 -854.1523,-2043.06385 -870.8438,-2056.96875 -10.0798,-8.3971 -25.5635,-12.61318 -41.0312,-12.53125 z"
       transform="translate(0,-2947.6379)"
       id="path3933"
       style="fill:#000000" />
  </g>
</svg>
