<?xml version="1.0" encoding="UTF-8" standalone="no"?>
<!-- Created with Inkscape (http://www.inkscape.org/) -->

<svg
   xmlns:dc="http://purl.org/dc/elements/1.1/"
   xmlns:cc="http://creativecommons.org/ns#"
   xmlns:rdf="http://www.w3.org/1999/02/22-rdf-syntax-ns#"
   xmlns:svg="http://www.w3.org/2000/svg"
   xmlns="http://www.w3.org/2000/svg"
   xmlns:xlink="http://www.w3.org/1999/xlink"
   version="1.1"
   width="4000"
   height="4000"
   id="svg2">
  <defs
     id="defs4" />
  <metadata
     id="metadata7">
    <rdf:RDF>
      <cc:Work
         rdf:about="">
        <dc:format>image/svg+xml</dc:format>
        <dc:type
           rdf:resource="http://purl.org/dc/dcmitype/StillImage" />
        <dc:title></dc:title>
      </cc:Work>
    </rdf:RDF>
  </metadata>
  <g
     transform="translate(0,2947.6379)"
     id="layer1">
    <path
       d="M 110,3 C 109.88558,2.99511 109.78915,3.023484 109.71875,3.09375 107.46584,5.34235 82.137234,46.174 53.4375,93.8125 l -52.1875,86.625 35.90625,3.8125 35.90625,3.84375 3.875,1865.65625 3.84375,1865.625 1865.37495,3.8438 1865.375,3.8437 2.375,37.0625 c 2.3064,36.0832 2.8011,36.7792 19.2188,26.4062 9.2741,-5.8596 50.6157,-31.17 91.8438,-56.25 41.228,-25.0799 74.9769,-47.817 75,-50.5312 0.05,-6.21 -162.4443,-102.5625 -172.9688,-102.5625 -4.2678,0 -9.5096,13.8282 -11.625,30.7187 l -3.8438,30.7188 -1830.75,0 -1830.7812,0 0,-1827.2812 0,-1827.25005 26.9375,-2.46875 c 14.80769,-1.3567 29.9028,-5.3748 33.5625,-8.9375 3.70203,-3.604 -16.28221,-44.4388 -45.03125,-92.0625 C 137.93667,39.017219 113.54713,3.1517393 110,3 z m 132.3125,192.78125 -1.96875,1489.43755 c -1.08522,819.1938 -0.32263,1493.7529 1.6875,1499.0312 2.01013,5.2783 9.04453,9.5938 15.65625,9.5938 6.61171,0 13.52079,-4.3155 15.34375,-9.5938 1.82297,-5.2783 34.82035,-334.3523 73.3125,-731.2812 38.49216,-396.929 71.39799,-726.003 73.125,-731.2813 1.72701,-5.2784 7.54752,-9.546 12.96875,-9.5 5.42125,0.047 226.00649,99.867 490.15625,221.8437 264.14985,121.9768 484.22255,220.26 489.06245,218.4063 4.84,-1.8537 148.7086,-194.8389 319.7188,-428.875 171.0102,-234.0361 315.2436,-427.2629 320.5,-429.375 5.2967,-2.1284 173.1509,151.8955 376.5625,345.5 201.861,192.1286 371.3848,348.3235 376.7187,347.125 5.3339,-1.1985 190.1739,-235.3774 410.75,-520.4063 220.5762,-285.0286 407.6466,-523.4599 415.7188,-529.8437 14.1234,-11.1692 14.6117,-25.3451 12.6875,-376.1875 l -2,-364.59375 -1700,0 -1700,0 z M 3633.3438,1161.5 c -7.5647,1.9867 -189.8086,230.9345 -407.4063,511.8438 -219.3112,283.1211 -402.5507,514.75 -407.2187,514.75 -4.6679,0 -171.7904,-155.4496 -371.375,-345.4688 -199.5847,-190.0192 -368.8875,-345.4139 -376.25,-345.3125 -8.7275,0.1204 -121.8228,148.6303 -324.9376,426.75 -171.3461,234.62 -314.0847,428.2036 -317.1874,430.1563 -3.1028,1.9526 -223.8613,-97.1711 -490.56255,-220.25 -266.70131,-123.079 -490.02761,-221.8015 -496.28125,-219.4063 -6.25366,2.3951 -11.47469,13.9426 -11.625,25.6875 -0.15028,11.7448 -32.65663,349.5671 -72.21875,750.7188 -39.56211,401.1516 -70.24662,732.2083 -68.1875,735.6562 2.05913,3.4479 5.58081,4.4462 7.8125,2.2188 2.23169,-2.2275 110.45101,-210.4699 240.5,-462.75 130.049,-252.2803 240.22265,-459.9418 244.8125,-461.4688 4.58984,-1.527 124.92183,102.8321 267.40625,231.9062 142.4844,129.0743 264.3747,234.6876 270.875,234.6876 6.5004,0 224.3102,-107.2474 484.0312,-238.3126 l 472.2188,-238.3124 308.2812,185.8124 c 224.3282,135.2093 311.2744,183.9116 319.3126,178.8126 6.0753,-3.854 175.0516,-197.0356 375.5,-429.2813 l 364.4687,-422.25 -1.5,-421.625 c -1.0978,-308.6231 -3.867,-422.4188 -10.3125,-424.5625 -0.038,-0.013 -0.097,-0.016 -0.1562,0 z m 2.8437,1049.625 c -7.6446,0 -395.0026,434.9562 -709.375,796.5312 l -23.1875,26.6563 -324.9062,-204.2813 C 2400.019,2717.6643 2251.6321,2625.7188 2249,2625.7188 c -2.6322,0 -212.1515,107.4252 -465.625,238.7187 -253.4734,131.2935 -465.0566,237.0617 -470.1875,235.0313 -5.1308,-2.0305 -120.0536,-99.1026 -255.375,-215.7188 -135.32138,-116.6161 -249.22406,-210.975 -253.09375,-209.6875 -11.40016,3.7928 -559.82424,1071.9978 -554.65625,1080.3437 3.10126,5.0083 584.62094,6.961 1698.4687,5.6876 l 1693.7813,-1.9376 1.9687,-773.5 c 1.6023,-632.322 0.1175,-773.5312 -8.0937,-773.5312 z"
       transform="translate(0,-2947.6379)"
       id="path3257"
       style="fill:#000000" />
  </g>
</svg>
