<?xml version="1.0" encoding="UTF-8" standalone="no"?>
<!-- Created with Inkscape (http://www.inkscape.org/) -->

<svg
   xmlns:dc="http://purl.org/dc/elements/1.1/"
   xmlns:cc="http://creativecommons.org/ns#"
   xmlns:rdf="http://www.w3.org/1999/02/22-rdf-syntax-ns#"
   xmlns:svg="http://www.w3.org/2000/svg"
   xmlns="http://www.w3.org/2000/svg"
   xmlns:xlink="http://www.w3.org/1999/xlink"
   version="1.1"
   width="4000"
   height="4000"
   id="svg2">
  <defs
     id="defs4" />
  <metadata
     id="metadata7">
    <rdf:RDF>
      <cc:Work
         rdf:about="">
        <dc:format>image/svg+xml</dc:format>
        <dc:type
           rdf:resource="http://purl.org/dc/dcmitype/StillImage" />
        <dc:title></dc:title>
      </cc:Work>
    </rdf:RDF>
  </metadata>
  <g
     transform="translate(0,2947.6379)"
     id="layer1">
    <path
       d="M 110,3 C 109.8791,2.99298 109.79347,3.01917 109.71875,3.09375 107.46584,5.34235 82.137234,46.174 53.4375,93.8125 l -52.1875,86.625 35.90625,3.8125 35.90625,3.84375 3.875,1865.65625 3.84375,1865.625 1865.37495,3.8438 1865.375,3.8437 2.375,37.0625 c 2.3063,36.0832 2.8011,36.7793 19.2188,26.4062 9.2741,-5.8596 50.6157,-31.17 91.8438,-56.25 41.2279,-25.0799 74.9769,-47.7598 75,-50.375 0.048,-5.7038 -167.5386,-106.5624 -177.0626,-106.5624 -3.6559,-1e-4 -7.699,14.6787 -9,32.625 l -2.375,32.6562 -1830.75,0 -1830.7812,0 -1.9375,-1818.7812 c -1.42656,-1338.04099 0.35492,-1821.53435 6.71875,-1829.18755 4.75761,-5.7216 20.33534,-10.40625 34.625,-10.40625 14.28966,0 25.96875,-3.79885 25.96875,-8.46875 C 215.375,163.39043 117.61675,3.4421142 110,3 z m 2408.9375,415.28125 c -124.9464,-0.25375 -230.6351,120.28093 -203.3125,247.4375 17.0148,79.1847 74.1703,139.4378 152.0938,160.375 45.8425,12.3174 47.09,12.35385 92.6874,2.59375 111.3454,-23.8335 185.0928,-133.5549 162.5626,-241.875 -17.3378,-83.355 -81.2347,-147.1331 -164.75,-164.4375 -13.2115,-2.73743 -26.3558,-4.0675 -39.2813,-4.09375 z M 3434.625,910.0625 c -72.5819,0 -107.6377,14.92525 -153.2188,65.28125 -39.3033,43.42055 -52.6874,78.49245 -52.6874,137.90625 0,59.3931 13.4062,94.4822 52.6562,137.8438 28.4054,31.3809 56.8792,50.0726 95.5,62.7187 33.0029,10.8067 116.6103,2.7106 150.5625,-14.5937 37.4824,-19.1036 84.8536,-69.5664 101.5,-108.125 6.8476,-15.8615 12.0625,-49.5165 12.0625,-77.8438 0,-59.1749 -13.4096,-93.9614 -53.1875,-137.90625 -45.5811,-50.356 -80.6056,-65.28125 -153.1875,-65.28125 z m -1830.7812,414.5937 c -48.2748,1e-4 -68.2948,3.5517 -92.8438,16.5626 -38.0161,20.1482 -85.2157,70.8409 -101.25,108.75 -15.2247,35.9948 -15.2247,119.7238 0,155.7187 22.6056,53.4451 78.5595,103.7976 136.3438,122.7187 33.0028,10.8067 116.6416,2.7106 150.5937,-14.5937 37.4824,-19.1035 84.8536,-69.5664 101.5,-108.125 6.8476,-15.8613 12.0625,-49.5165 12.0625,-77.8437 0,-59.1749 -13.4408,-93.9614 -53.2188,-137.9063 -45.5811,-50.356 -80.6056,-65.2813 -153.1874,-65.2813 z m 1827.25,406.5 c -123.532,1.8044 -227.181,121.3459 -200.0938,247.4063 17.0147,79.1847 74.1703,139.469 152.0938,160.4063 45.8426,12.3173 47.09,12.3538 92.6874,2.5937 111.3454,-23.8335 185.093,-133.5861 162.5626,-241.9063 -17.3378,-83.3549 -81.2347,-147.133 -164.75,-164.4374 -14.3124,-2.9656 -28.5356,-4.2665 -42.5,-4.0626 z M 684.9375,1761.875 c -123.532,1.8044 -227.18086,121.3458 -200.09375,247.4062 17.01474,79.1848 74.17034,139.469 152.09375,160.4063 45.84263,12.3174 47.09009,12.3538 92.6875,2.5937 81.53986,-17.4536 144.8055,-80.9427 162.4375,-163 23.45877,-109.1744 -51.4414,-219.892 -164.625,-243.3437 -14.31239,-2.9655 -28.53551,-4.2665 -42.5,-4.0625 z m 1830.7813,0 c -123.532,1.8044 -227.1809,121.3458 -200.0938,247.4062 17.0148,79.1848 74.1703,139.469 152.0938,160.4063 45.8425,12.3174 47.09,12.3538 92.6874,2.5937 111.3453,-23.8334 185.0928,-133.586 162.5626,-241.9062 -17.3379,-83.355 -81.2347,-147.133 -164.75,-164.4375 -14.3124,-2.9655 -28.5356,-4.2665 -42.5,-4.0625 z m -912.1563,368.5 c -124.9465,-0.2537 -230.6351,120.2809 -203.3125,247.4375 17.0148,79.1847 74.1704,139.4377 152.0938,160.375 45.8426,12.3174 47.0899,12.3538 92.6874,2.5937 111.3453,-23.8334 185.093,-133.5548 162.5626,-241.875 -17.3377,-83.355 -81.2347,-147.133 -164.75,-164.4374 -13.2115,-2.7375 -26.3558,-4.0676 -39.2813,-4.0938 z m -915.375,790.7812 c -124.94646,-0.2536 -230.6664,120.281 -203.34375,247.4376 17.01474,79.1847 74.17034,139.4689 152.09375,160.4062 45.84263,12.3174 47.09009,12.3538 92.6875,2.5938 111.34532,-23.8335 185.09289,-133.5862 162.5625,-241.9063 -17.33777,-83.355 -81.23471,-147.133 -164.75,-164.4375 -13.21143,-2.7374 -26.3245,-4.0675 -39.25,-4.0938 z"
       transform="translate(0,-2947.6379)"
       id="path3342"
       style="fill:#000000" />
  </g>
</svg>
