<?xml version="1.0" encoding="UTF-8" standalone="no"?>
<!-- Created with Inkscape (http://www.inkscape.org/) -->

<svg
   xmlns:dc="http://purl.org/dc/elements/1.1/"
   xmlns:cc="http://creativecommons.org/ns#"
   xmlns:rdf="http://www.w3.org/1999/02/22-rdf-syntax-ns#"
   xmlns:svg="http://www.w3.org/2000/svg"
   xmlns="http://www.w3.org/2000/svg"
   xmlns:xlink="http://www.w3.org/1999/xlink"
   version="1.1"
   width="4000"
   height="4000"
   id="svg2">
  <defs
     id="defs4" />
  <metadata
     id="metadata7">
    <rdf:RDF>
      <cc:Work
         rdf:about="">
        <dc:format>image/svg+xml</dc:format>
        <dc:type
           rdf:resource="http://purl.org/dc/dcmitype/StillImage" />
        <dc:title></dc:title>
      </cc:Work>
    </rdf:RDF>
  </metadata>
  <g
     transform="translate(0,2947.6379)"
     id="layer1">
    <path
       d="m 110.78125,5.5625 c -4.62425,0.2072625 -9.12209,3.05645 -16.25,8.65625 -8.858607,6.9594 -30.494474,36.3515 -48.0625,65.3125 -25.037778,41.2749 -30.91092,57.34415 -27.15625,74.40625 4.066745,18.4802 9.072492,22.128 33.125,24.125 l 28.34375,2.375 3.84375,1865.625 3.84375,1865.6563 1865.37505,3.8437 1865.375,3.8125 2.375,28.3125 c 1.5657,18.7925 6.7287,29.475 15.375,31.75 7.1641,1.8851 17.2629,3.8227 22.4374,4.3125 12.5477,1.1878 125.2188,-68.4878 125.2188,-77.4375 0,-7.9773 0.4029,-8.2131 -75.3125,38.2187 -30.8377,18.911 -57.4261,33.0396 -59.0937,31.375 -4.9235,-4.9138 125.9443,-83.4062 139.0624,-83.4062 15.6775,0 9.8354,-17.2717 -6.6562,-19.6875 -6.9769,-1.022 -41.8734,-19.4841 -77.5625,-41 -35.6891,-21.5159 -68.5233,-39.0937 -72.9687,-39.0937 -4.4457,0 -9.1557,12.9463 -10.4688,28.7812 l -2.4062,28.7812 -1838.4376,0 -1838.4687,0 -1.9375,-1826.4374 C 138.94846,680.12609 140.72984,194.6533 147.09375,187 c 4.75757,-5.7216 18.03085,-10.40625 29.5,-10.40625 11.46914,0 22.85709,-2.01805 25.3125,-4.46875 6.09265,-6.081 -80.66962,-149.1126 -90.34375,-148.9375 -4.24765,0.0769 -24.854007,29.3101 -45.78125,65 -20.927244,35.6899 -39.460637,63.50475 -41.1875,61.78125 C 22.866887,148.24515 39.481346,117.0705 61.5,80.6875 c 26.843787,-44.356 44.04607,-65.40925 52.1875,-63.84375 12.16151,2.3385 101.01185,140.1433 101.46875,157.375 0.14143,5.3336 -13.42344,10.15595 -32.46875,11.53125 L 150,188.09375 l 0,1827.25005 0,1827.2812 1830.7812,0 1830.75,0 2.375,-32.6562 c 1.301,-17.9463 5.505,-32.625 9.3438,-32.625 3.8387,0 39.1229,19.3921 78.4062,43.0937 39.2834,23.7016 74.0145,44.6478 77.1876,46.5313 3.173,1.8834 5.7812,-0.01 5.7812,-4.1876 0,-9.0866 -150.0696,-100.7812 -164.9375,-100.7812 -12.6137,0 -19.6875,16.7842 -19.6875,46.6875 l 0,22.4063 -1819.2188,0 -1819.24995,0 0,-1815.75 0,-1815.7188 22.46875,0 c 30.60398,0 46.78125,-7.1449 46.78125,-20.625 0,-18.024 -84.30529,-153.99425 -103.09375,-166.28125 C 120.13111,7.7771 115.4055,5.3552375 110.78125,5.5625 z M 13.625,161.96875 c -1.052,-0.0108 -2.710475,2.09814 -5.34375,6.25 -9.348691,14.7401 8.393123,31.40625 33.46875,31.40625 l 19.78125,0 0,1857.4062 c 0,1678.3243 1.171358,1858.5674 12.09375,1869.4688 10.922249,10.9013 191.16341,12.0938 1869.2188,12.0938 l 1857.1562,0 0,19.5 c 0,10.7348 4.2963,24.1233 9.5625,29.75 5.2662,5.6299 14.7877,8.1693 21.1563,5.6562 9.7336,-3.8412 9.5127,-4.9804 -1.4376,-7.1875 -8.8392,-1.7816 -13.7741,-11.7249 -15.375,-30.9375 l -2.375,-28.3125 -1865.375,-3.8437 L 80.78125,3919.375 76.9375,2053.75 73.0625,188.09375 44.21875,185.71875 C 23.268629,183.98815 15.3668,179.7963 15.28125,170.375 15.230129,164.74502 14.817266,161.98097 13.625,161.96875 z M 3641.6875,1129.375 c -1.0693,-0.018 -2.1024,0.1181 -3.0625,0.4375 -5.1206,1.7036 -189.8429,235.9549 -410.5,520.5625 -220.6571,284.6076 -404.8771,518.6613 -409.375,520.0938 -4.4979,1.4324 -171.5408,-152.9545 -371.2188,-343.0626 -222.1862,-211.5375 -368.8386,-345.625 -377.9374,-345.625 -10.7746,0 -101.0281,117.8053 -327.8438,428 -172.1347,235.4127 -314.0551,429.2715 -315.375,430.7813 -1.3197,1.5098 -220.3122,-97.8391 -486.65625,-220.75 -266.34407,-122.9109 -489.61524,-223.4687 -496.15625,-223.4687 -6.54101,0 -14.59274,4.3154 -17.90625,9.5937 -10.95512,17.4511 -155.88447,1528.8356 -147.5625,1538.8437 4.20793,5.0604 12.26678,7.4412 17.90625,5.2813 5.63948,-2.1599 116.48107,-210.1213 246.3125,-462.125 129.83143,-252.0037 238.87004,-461.1616 242.3125,-464.7813 3.44254,-3.6195 122.98497,99.1629 265.6562,228.4063 142.6711,129.2435 264.7185,235 271.2188,235 6.5004,0 224.3324,-107.2427 484.0625,-238.3125 l 472.2187,-238.3125 300.4688,181.1563 c 222.6277,134.2246 305.6309,180.5486 320.4062,178.8124 15.6482,-1.8386 92.5974,-86.6447 357.4688,-393.9062 185.6444,-215.3551 352.8043,-410.0065 371.4688,-432.5625 l 33.9374,-41 -0.125,-427.3125 c -0.065,-235.0255 -3.1045,-432.082 -6.7812,-437.875 -2.9873,-4.7068 -8.304,-7.795 -12.9375,-7.875 z m -4.7813,24 c 7.324,0.4382 9.1433,91.3151 8.7813,425.625 l -0.4687,428.6875 -364.4063,422.25 c -200.4259,232.2457 -369.3935,425.4273 -375.4687,429.2813 -8.0381,5.099 -94.9844,-43.6033 -319.3126,-178.8126 L 2277.75,2494.5938 1805.5312,2732.9062 c -259.721,131.0652 -477.5308,238.3126 -484.0312,238.3126 -6.5003,-1e-4 -128.4462,-105.6754 -271,-234.8126 -142.55388,-129.1371 -263.29927,-233.1246 -268.3125,-231.0937 -5.01315,2.0309 -115.89916,211.3394 -246.4375,465.125 -130.53834,253.7857 -240.67093,461.4375 -244.71875,461.4375 -4.23224,0 -5.44857,-13.8923 -2.875,-32.6562 2.46142,-17.9463 35.52604,-352.1863 73.5,-742.7813 37.97397,-390.595 69.92615,-717.0667 71,-725.4687 1.07383,-8.4023 7.15384,-16.1732 13.5,-17.2813 6.34615,-1.108 227.66289,97.8418 491.8125,219.875 264.14975,122.0331 484.22255,220.3537 489.06245,218.5 4.84,-1.8538 148.7085,-194.8886 319.7188,-428.9687 202.677,-277.4258 315.6179,-425.6608 324.3438,-425.7813 7.3624,-0.1016 176.7931,155.3972 376.5312,345.5625 199.7381,190.1654 367.5545,344.7643 372.9062,343.5625 5.352,-1.2018 188.9765,-233.4263 408.0626,-516.0625 219.086,-282.6361 402.6489,-515.2487 407.9374,-516.9375 0.1191,-0.038 0.2588,-0.07 0.375,-0.062 z m -7.4687,19.4688 c -0.2339,0.03 -0.4732,0.1403 -0.7187,0.3437 -5.3645,4.4434 -186.2443,236.2121 -401.9376,515.0625 -291.4665,376.8108 -396.2343,507.0916 -408.0312,507.2812 -10.6078,0.1709 -136.2002,-114.3563 -378.6562,-345.25 -199.5348,-190.0191 -365.726,-345.4687 -369.2813,-345.4687 -3.5552,0 -146.4042,191.6004 -317.4687,425.7813 -171.0646,234.1806 -315.8099,427.6937 -321.6563,430.0624 -5.8464,2.3688 -227.9015,-95.9307 -493.4375,-218.4687 -265.53595,-122.538 -485.81275,-222.8125 -489.5,-222.8125 -5.2167,0 -150.19906,1432.1936 -149.03125,1472.1875 0.15413,5.2783 1.66972,9.5937 3.375,9.5937 1.70527,1e-4 108.14037,-203.8434 236.53125,-452.9687 170.98013,-331.7641 236.96939,-452.9534 246.625,-452.9687 7.25046,-0.011 129.54015,105.3654 271.75,234.1562 142.2098,128.7908 262.3366,234.1562 266.9375,234.1562 4.6008,0 221.0835,-107.3858 481.0937,-238.625 l 472.75,-238.5937 308.0938,185.2813 308.0625,185.3124 17.5,-17.6874 c 9.6359,-9.7412 176.8187,-202.5571 371.5,-428.4688 l 353.9687,-410.75 0.2813,-417.4375 c 0.219,-325.7535 -1.4994,-410.6475 -8.75,-409.7187 z m 12.3437,1015.25 c -5.733,-1e-4 -170.2747,182.2552 -365.6562,405 -195.3815,222.7447 -359.4185,409.5057 -364.5,415.0312 -7.4652,8.1175 -70.3263,-28.378 -327.4688,-190.0312 -185.5304,-116.6342 -325.8886,-200.0626 -336.5624,-200.0626 -10.0701,1e-4 -222.3314,105.7206 -471.6876,234.9063 -249.356,129.1857 -457.5787,233.2215 -462.7187,231.1875 -5.1401,-2.0339 -120.1154,-99.1851 -255.5,-215.875 -135.38461,-116.69 -250.86238,-211.213 -256.625,-210.0625 -11.49515,2.295 -569.58802,1076.7169 -570.03125,1097.4063 -0.15078,7.0377 4.05528,14.5576 9.34375,16.6874 5.28846,2.1299 771.7878,4.1354 1703.3125,4.4688 1529.9727,0.5476 1694.8305,-0.5702 1705.75,-11.4688 10.8284,-10.8076 12.0937,-92.3266 12.0937,-782.4687 0,-423.7292 -2.0881,-775.8832 -4.6562,-782.5625 -2.568,-6.6794 -9.3605,-12.1562 -15.0938,-12.1562 z m -2.2812,21.25 c 0.1339,-0.035 0.2259,-0.024 0.2812,0.031 3.5453,3.5384 5.5782,353.4804 4.5,777.625 l -1.9687,771.1562 -1698.0937,1.9376 c -1356.09304,1.5464 -1697.99953,-0.01 -1697.7813,-7.6876 0.39957,-14.0585 550.00203,-1075.5789 558.3125,-1078.3437 3.86738,-1.2867 117.74112,93.0714 253.0625,209.6875 135.3214,116.6162 250.2442,213.6884 255.375,215.7188 5.1309,2.0304 216.7141,-103.7378 470.1875,-235.0313 253.4735,-131.2935 463.0027,-238.7187 465.625,-238.7187 2.6222,0 145.8226,88.7167 318.25,197.1562 172.4273,108.4395 320.4448,198.4431 328.9062,200 12.0968,2.2256 92.5125,-85.1012 376.2813,-408.5625 195.3929,-222.7238 358.6275,-402.7716 367.0625,-404.9687 z m -4.875,7.625 -352.5625,402.0624 c -193.9044,221.1439 -359.116,406.7768 -367.125,412.5 -13.1564,9.4017 -45.5579,-9.0926 -335.7187,-191.5312 -176.6374,-111.0606 -327.0399,-201.4795 -334.25,-200.9375 -7.2102,0.5421 -217.8446,107.0107 -468.0626,236.625 -388.4286,201.2084 -457.3848,234.5515 -471.6874,227.9375 -9.2137,-4.2606 -123.5941,-99.8709 -254.1563,-212.4688 -130.56222,-112.5978 -240.95367,-203.523 -245.34375,-202.0624 -10.39015,3.4567 -551.53742,1051.8575 -546.84375,1059.4374 1.9661,3.1751 761.5472,5.7813 1687.9688,5.7813 1340.4396,0 1685.1462,-1.9566 1688.0624,-9.5937 2.0155,-5.2784 2.7781,-351.1905 1.6876,-768.6876 l -1.9688,-759.0624 z"
       transform="translate(0,-2947.6379)"
       id="path3517"
       style="fill:#000000" />
  </g>
</svg>
