<?xml version="1.0" encoding="UTF-8" standalone="no"?>
<!-- Created with Inkscape (http://www.inkscape.org/) -->

<svg
   xmlns:dc="http://purl.org/dc/elements/1.1/"
   xmlns:cc="http://creativecommons.org/ns#"
   xmlns:rdf="http://www.w3.org/1999/02/22-rdf-syntax-ns#"
   xmlns:svg="http://www.w3.org/2000/svg"
   xmlns="http://www.w3.org/2000/svg"
   xmlns:xlink="http://www.w3.org/1999/xlink"
   version="1.1"
   width="4000"
   height="4000"
   id="svg2">
  <defs
     id="defs4" />
  <metadata
     id="metadata7">
    <rdf:RDF>
      <cc:Work
         rdf:about="">
        <dc:format>image/svg+xml</dc:format>
        <dc:type
           rdf:resource="http://purl.org/dc/dcmitype/StillImage" />
        <dc:title></dc:title>
      </cc:Work>
    </rdf:RDF>
  </metadata>
  <g
     transform="translate(0,2947.6379)"
     id="layer1">
    <path
       d="m 174.75,81.78125 c -10.93237,0.195 -95.015418,146.3785 -89.40625,155.4375 2.618788,4.2294 16.27282,7.6875 30.34375,7.6875 l 25.5625,0 0,1798.12495 c 0,1388.6622 2.04732,1800.1852 8.9375,1807.0626 6.89009,6.8773 418.33561,8.9062 1806.6875,8.9062 l 1797.7812,0 0,24.75 c 0,13.6055 2.2113,26.9352 4.9376,29.6562 2.726,2.7212 6.8729,4.9688 9.2187,4.9688 7.8777,0 156.8437,-92.5727 156.8437,-97.4688 0,-9.1286 -155.5456,-96.7407 -163.2812,-91.9687 -4.2521,2.6231 -7.7188,16.2677 -7.7188,30.3125 l 0,25.5312 -1773.25,0 -1773.24995,0 1.875,-1768.0937 1.875,-1768.09375 L 236.5,246.25 c 13.52443,-1.2965 26.23345,-6.66095 28.25,-11.90625 4.33567,-11.2776 -79.1277,-152.7564 -90,-152.5625 z M 2827.2188,597.375 c -407.2416,-0.0652 -388.3438,1.06203 -403,53.75 -5.2559,18.8904 -7.7825,445.4645 -7.8126,1321.0312 l -0.062,1293.1563 -416.3438,0 -416.3438,0 -0.062,-959.1875 c -0.028,-643.5406 -2.5733,-968.3753 -7.7813,-987.0938 -15.5056,-55.7305 3.2821,-53.4386 -463.9687,-55.9687 -229.18059,-1.241 -431.32619,-0.1509 -449.2188,2.4375 -43.46939,6.2882 -67.84375,30.8242 -67.84375,68.3125 0,36.992 16.17881,58.9524 50.40625,68.4375 17.36978,4.8151 169.39327,7.6888 408.5937,7.7188 l 380.9376,0.062 1.9687,974.3438 c 1.8461,914.6312 2.7813,975.5594 15.0313,994.2188 7.1774,10.9327 23.8875,23.0563 37.1562,26.9374 14.3948,4.2106 225.1658,6.5502 522.5938,5.7813 558.9519,-1.4449 530.0315,1.4639 545.75,-55.0313 5.2557,-18.8904 7.7512,-445.4644 7.7812,-1321.0312 l 0.062,-1293.125 349.3125,0 349.3125,0 1.9687,976.4688 2,976.5 24.2813,21.6562 c 31.8245,28.3809 60.8944,28.3809 92.7187,0 l 24.2813,-21.6562 1.9687,-1006.75 c 1.3635,-689.97015 -0.4899,-1015.91365 -5.875,-1035.87505 -15.5727,-57.7255 8.1834,-55.0625 -490.5312,-55.0625 -31.0733,0 -60.1318,-0.0269 -87.2812,-0.0312 z"
       transform="translate(0,-2947.6379)"
       id="path4025"
       style="fill:#000000" />
  </g>
</svg>
