<?xml version="1.0" encoding="UTF-8" standalone="no"?>
<!-- Created with Inkscape (http://www.inkscape.org/) -->

<svg
   xmlns:dc="http://purl.org/dc/elements/1.1/"
   xmlns:cc="http://creativecommons.org/ns#"
   xmlns:rdf="http://www.w3.org/1999/02/22-rdf-syntax-ns#"
   xmlns:svg="http://www.w3.org/2000/svg"
   xmlns="http://www.w3.org/2000/svg"
   xmlns:xlink="http://www.w3.org/1999/xlink"
   version="1.1"
   width="4000"
   height="4000"
   id="svg2">
  <defs
     id="defs4" />
  <metadata
     id="metadata7">
    <rdf:RDF>
      <cc:Work
         rdf:about="">
        <dc:format>image/svg+xml</dc:format>
        <dc:type
           rdf:resource="http://purl.org/dc/dcmitype/StillImage" />
        <dc:title></dc:title>
      </cc:Work>
    </rdf:RDF>
  </metadata>
  <g
     transform="translate(0,2947.6379)"
     id="layer1">
    <path
       d="M 110,3 C 109.8791,2.99298 109.79347,3.01917 109.71875,3.09375 107.46584,5.34235 82.137234,46.174 53.4375,93.8125 l -52.1875,86.625 35.90625,3.8125 35.90625,3.84375 3.875,1865.65625 3.84375,1865.625 1865.37495,3.8438 1865.375,3.8437 2.375,37.0625 c 2.3063,36.0832 2.8011,36.7793 19.2188,26.4062 9.2741,-5.8596 50.6157,-31.17 91.8438,-56.25 41.2279,-25.0799 74.9769,-47.7598 75,-50.375 0.048,-5.7038 -167.5386,-106.5624 -177.0626,-106.5624 -3.6559,-1e-4 -7.699,14.6787 -9,32.625 l -2.375,32.6562 -1830.75,0 -1830.7812,0 -1.9375,-1818.7812 c -1.42656,-1338.04099 0.35492,-1821.53435 6.71875,-1829.18755 4.75761,-5.7216 20.33534,-10.40625 34.625,-10.40625 14.28966,0 25.96875,-3.79885 25.96875,-8.46875 C 215.375,163.39043 117.61675,3.4421142 110,3 z m 3388.3125,382.5625 c -10.019,-0.2187 -13.6875,27.89734 -13.6875,92.21875 0,68.6122 -2.5117,88.05225 -12.75,99.34375 -7.0019,7.7221 -15.4984,14.03125 -18.875,14.03125 -7.176,0 -23.75,-36.178 -37.875,-82.625 -5.4761,-18.0067 -14.601,-36.5707 -20.25,-41.25 -5.649,-4.6792 -10.25,-13.54995 -10.25,-19.71875 0,-23.411 -19.4217,-3.62675 -23.0938,23.53125 -4.2653,31.5451 -17.802,38.35195 -21.8124,10.96875 -3.9985,-27.3027 -14.4651,-33.411 -31.25,-18.25 -11.1759,10.0944 -16.0916,27.50375 -19.2813,68.53125 -2.3519,30.2501 -6.9293,89.71325 -10.1875,132.15625 -4.0621,52.9166 -10.2101,83.6672 -19.5625,97.875 -15.7611,23.9434 -19.441,24.78665 -41.5313,9.34375 -15.0089,-10.4926 -17.2815,-9.8771 -28.8124,7.6875 -17.1302,26.0939 -48.4561,25.77285 -58.5,-0.59375 -9.7697,-25.6468 -22.9063,-17.0176 -22.9063,15.0625 0,28.2922 -23.3261,55.1308 -41.7813,48.0625 -6.3776,-2.4426 -13.9398,-14.0819 -16.8124,-25.875 -2.8726,-11.7931 -9.91,-28.26455 -15.625,-36.59375 -5.7149,-8.3291 -10.4063,-23.09415 -10.4063,-32.84375 0,-20.7324 -21.5313,-32.03425 -31.4063,-16.46875 -3.739,5.8937 -6.8764,33.84015 -6.9374,62.09375 -0.065,28.2537 -3.5506,53.5153 -7.7813,56.125 -4.2308,2.6098 -7.7187,11.62535 -7.7187,20.03125 0,25.8923 -21.2236,57.9772 -49.2813,74.5 -19.5716,11.5253 -28.9983,24.06305 -35.0937,46.65625 -4.5854,16.9958 -11.6969,32.9924 -15.8126,35.5313 -4.1159,2.5388 -7.5,13.0363 -7.5,23.3437 1e-4,25.8529 -21.3756,24.2965 -24.4687,-1.7813 -1.3387,-11.2866 -6.774,-21.9231 -12.0625,-23.6562 -6.9776,-2.2869 -9.625,9.53 -9.625,43.0938 0,25.4384 -3.6645,48.5105 -8.1562,51.2812 -4.4918,2.7708 -11.3225,13.3535 -15.1876,23.5 -5.4752,14.3735 -12.6986,18.4375 -32.625,18.4375 -33.8782,0 -44.0312,-11.7752 -44.0312,-51 0,-17.9082 -3.4567,-34.6716 -7.6875,-37.2813 -4.2308,-2.6097 -7.6875,-11.4601 -7.6875,-19.6562 0,-31.001 -23.1064,-12.8841 -53.375,41.8438 -50.3245,90.9907 -92.6143,107.2361 -101.7812,39.125 -8.4417,-62.7205 -15.082,-83.3435 -33.3126,-103.5626 -19.887,-22.0561 -25.0578,-41.0967 -47,-172.7187 -2.8129,-16.8737 -9.429,-37.6002 -14.6874,-46.0625 -5.2585,-8.4622 -11.6881,-24.52845 -14.2813,-35.71875 -3.1291,-13.5031 -12.3702,-23.00625 -27.5313,-28.28125 -20.4342,-7.1098 -24.4681,-5.78565 -38.0624,12.65625 -13.3219,18.0724 -17.1342,19.44385 -30.9376,11.03125 -8.6605,-5.2783 -21.5906,-9.625 -28.7187,-9.625 -15.172,0 -41.0937,-21.5205 -41.0937,-34.125 0,-15.7439 -67.3243,-75.70385 -79.6876,-70.96875 -6.3898,2.4473 -20.1684,-2.25935 -30.625,-10.46875 -10.4565,-8.2093 -21.0176,-14.9375 -23.4374,-14.9375 -2.4199,0 -11.4602,13.82815 -20.0938,30.71875 -13.5004,26.4123 -19.2145,30.6875 -40.9375,30.6875 -18.7121,0 -31.9492,6.8804 -51.0625,26.5625 -21.6677,22.3124 -30.9506,26.4782 -57.9375,25.9375 -46.887,-0.9393 -97.2587,29.7843 -112.2187,68.4375 -7.2933,18.8441 -22.6305,21.8292 -46.5313,9.0625 -11.3604,-6.0684 -18.4702,-5.6477 -27.25,1.625 -9.8735,8.1785 -13.6641,7.36465 -22.5625,-4.78125 -5.8884,-8.0373 -10.7188,-17.25165 -10.7188,-20.46875 0,-5.1554 -48.1892,-21.7614 -63.4687,-21.875 -3.1731,-0.0236 -5.7662,9.4502 -5.7813,21.0625 -0.016,11.6123 -6.9151,32.3788 -15.3124,46.125 -12.8118,20.9725 -19.2917,24.67645 -40.3438,23.03125 l -25.0938,-1.96875 -5.9374,53.75 c -3.2593,29.5586 -8.4445,77.91025 -11.5313,107.46875 -5.1907,49.7027 -7.0587,53.9525 -24.8437,56.375 -10.577,1.4407 -25.2069,7.9683 -32.5313,14.5 -10.5456,9.4042 -15.6693,9.9343 -24.5313,2.5937 -8.2809,-6.8594 -15.2751,-7.0878 -26.9062,-0.875 -8.6451,4.6182 -23.83,6.3599 -33.75,3.875 -20.7323,-5.1935 -33.4021,6.6602 -37.3125,34.875 -2.5257,18.2235 -5.1843,19.1811 -52.6563,19.25 -27.5,0.041 -54.5335,2.9763 -60.0624,6.5 -5.5288,3.5238 -18.364,4.3282 -28.5313,1.7813 -13.6566,-3.4211 -20.6398,-0.6137 -26.75,10.7813 -9.301,17.3458 -29.932,19.5227 -65.0625,6.8437 -21.3189,-7.6942 -27.4979,-6.1369 -59.0625,15.125 -37.309,25.1311 -51.1179,39.0393 -64.0937,64.5313 -15.0366,29.5403 -32.1786,33.9491 -53.68755,13.7812 -18.19654,-17.0619 -21.48902,-17.612 -49.53125,-8.375 -16.51969,5.4419 -33.4765,7.7539 -37.6875,5.1562 -7.49847,-4.6254 -47.84375,41.357 -47.84375,54.5313 0,3.6761 -11.90528,18.2242 -26.46875,32.3125 -22.57715,21.841 -30.37689,24.9665 -52.9375,21.3125 -28.47443,-4.6119 -43.65625,4.5195 -43.65625,26.25 0,18.9951 -14.65927,25.6205 -19.90625,9 -2.41736,-7.6572 -9.29821,-23.0731 -15.3125,-34.2813 -6.0143,-11.208 -10.9375,-29.941 -10.9375,-41.625 0,-26.4645 -19.90012,-49.3437 -42.9375,-49.3437 -17.98485,0 -41.6875,-34.8521 -41.6875,-61.3125 0,-7.0927 -2.32652,-15.207 -5.15625,-18.0312 -6.49977,-6.4873 -33.3125,17.2365 -33.3125,29.4687 0,5.0251 -7.0765,15.5408 -15.75,23.375 -13.53708,12.2273 -19.18922,12.957 -39.8125,5.1875 -17.72933,-6.679 -26.73777,-6.7948 -34.375,-0.4688 -17.8442,14.781 -39.72643,-13.0592 -42.375,-53.9062 -2.44975,-37.7807 -15.91986,-48.7211 -20.25,-16.4375 -1.41594,10.5567 -5.75248,22.4884 -9.625,26.5 -3.87253,4.0115 -7.03125,14.805 -7.03125,24 0,9.195 -5.1851,21.0244 -11.53125,26.2813 -6.34615,5.2566 -11.5625,17.1255 -11.5625,26.375 0,23.1889 -38.36846,58.0937 -63.875,58.0937 l -20.71875,0 0,95.4063 c 0,76.5096 2.40153,97.8263 12.09375,107.5 6.64835,6.6356 14.27625,12.0624 16.96875,12.0624 8.71521,1e-4 63.25,-56.5802 63.25,-65.625 0,-4.8226 6.91346,-15.0445 15.375,-22.6874 14.84622,-13.4098 15.90379,-13.4098 30.75,0 8.46154,7.6428 15.40625,21.806 15.40625,31.4687 0,41.0775 67.13854,55.1544 106.28125,22.2813 12.56995,-10.5567 29.93494,-19.1876 38.59375,-19.1876 8.65881,1e-4 17.88524,-3.4647 20.5,-7.6874 7.7818,-12.5671 66.60215,-8.9616 82.09375,5.0312 7.73699,6.9884 14.0625,22.3294 14.0625,34.0938 0,11.7642 3.45673,23.5465 7.6875,26.1562 4.23077,2.6098 7.6875,11.5813 7.6875,19.9688 0,13.1468 3.58,14.6059 25.84375,10.4374 21.06614,-3.9444 29.78256,-1.186 47.28125,15 11.79846,10.9135 23.85519,19.8438 26.8125,19.8438 7.71008,0 27.62769,-24.3928 33.625,-41.1875 3.85569,-10.7974 9.32081,-12.9311 22.3125,-8.7187 39.04207,12.6581 71.83648,12.9165 82.03125,0.6562 11.35846,-13.6598 35.627,-16.205 42.875,-4.5 10.25535,16.5616 26.08825,6.0657 43.40625,-28.7812 14.789,-29.7584 22.62,-37.1802 42.5313,-40.3126 29.8023,-4.6886 56.375,-36.3472 56.375,-67.1874 0,-27.4865 22.1344,-50.4392 38.625,-40.0313 6.2495,3.9443 17.6576,7.2203 25.3437,7.2813 7.6862,0.065 25.6349,9.003 39.875,19.8437 23.7074,18.0478 27.3956,18.7599 43.7187,8.5313 43.8148,-27.4563 113.9688,-21.1497 113.9688,10.25 0,20.9165 30.3453,61.3124 46.0625,61.3124 17.8224,0 30.875,-15.5495 30.875,-36.8124 0,-10.116 7.1565,-28.4234 15.9063,-40.6876 15.3253,-21.4812 18.1802,-22.3124 78.4062,-22.3124 57.549,-1e-4 64.2441,1.6554 84.3438,20.875 18.6725,17.8552 24.0297,19.5378 36.875,11.5312 8.2611,-5.1493 19.7208,-9.375 25.4687,-9.375 14.7485,0 35.7461,25.1292 42.625,51 4.26,16.0213 11.2399,22.578 25.9063,24.3125 11.0454,1.3063 24.2228,7.3542 29.2812,13.4375 5.6922,6.8456 23.421,11.0625 46.5,11.0625 32.7904,0 39.3904,-2.8693 54.8125,-23.7813 23.3944,-31.7219 51.7242,-45.3124 94.375,-45.3124 19.5403,0 43.7237,-5.5537 54.25,-12.4376 22.7897,-14.9036 37.8427,-6.0836 44.4375,26.0313 5.3416,26.0118 29.6716,42.0003 51.5938,33.9063 8.904,-3.2876 23.833,-19.6459 33.1874,-36.3438 13.7509,-24.5458 21.9171,-30.8168 42.6563,-32.8125 26.0211,-2.5041 62.4375,21.2577 62.4375,40.75 0,4.8079 10.3131,18.5831 22.9062,30.625 l 22.875,21.9063 16.125,-20.4688 c 12.969,-16.4556 22.5647,-20.4375 49,-20.4375 34.7595,0 52.0859,12.3695 61.7813,44.125 3.1432,10.2951 13.5919,19.1081 25.9063,21.8437 11.3525,2.5221 35.3153,11.1432 53.25,19.1876 17.9346,8.0443 39.4961,14.625 47.9062,14.625 8.4101,-1e-4 21.1694,9.5126 28.375,21.125 7.2056,11.6123 23.4304,32.2219 36.0312,45.7812 12.6007,13.5593 25.1868,23.2354 28,21.5 2.8133,-1.7353 9.8226,-18.0296 15.5626,-36.1875 14.1644,-44.808 21.0426,-52.2187 48.5,-52.2187 22.9514,0 59.1562,25.143 59.1562,41.0624 0,11.5513 24.0918,35.7188 35.5938,35.7188 5.5663,0 18.6531,-18.6245 29.0937,-41.4062 37.732,-82.3323 96.2749,-124.2363 103.375,-74 5.2786,37.3483 92.6678,103.9521 111.5937,85.0624 4.4333,-4.4247 15.5121,-8.0312 24.625,-8.0312 9.1129,0 25.8999,-8.6309 37.3126,-19.1875 24.4647,-22.6298 33.0345,-23.6599 52.3437,-6.2187 13.5053,12.1986 15.7157,12.1986 36.4063,0 12.1159,-7.1433 29.102,-13 37.7187,-13 8.6168,-1e-4 17.7915,-3.4337 20.4063,-7.6563 2.6146,-4.2227 12.7433,-7.6875 22.5,-7.6875 9.7566,0 26.5241,-6.8984 37.2812,-15.3438 29.8483,-23.4338 68.8819,-20.1195 101.7188,8.6563 26.8021,23.4876 27.7509,23.7082 43.0312,9.9063 15.3085,-13.8275 16.0449,-13.5949 35.2812,10.9374 18.5624,23.6728 20.4175,24.3461 33.8438,12.2188 10.2936,-9.2977 21.4232,-11.4724 40.4688,-7.9062 14.4549,2.7065 35.3698,1.4617 46.4687,-2.75 l 20.1875,-7.6563 0,-453.1563 c 0,-255.27895 -2.9738,-453.18745 -6.7812,-453.18745 -6.0975,0 -14.6967,17.8615 -26.875,55.6875 -9.0777,28.1949 -58.542,4.5808 -58.7813,-28.0625 -0.1644,-22.4389 -8.3592,-33.0687 -32.7187,-42.3125 -20.0946,-7.6252 -21,-10.257 -21,-61.4375 -1e-4,-29.4139 -3.4568,-55.60905 -7.6876,-58.21875 -4.2307,-2.6098 -7.8029,-36.5022 -7.9374,-75.3125 -0.1676,-48.3238 -3.6475,-75.05365 -11.0313,-84.78125 -5.4043,-7.11973 -9.8761,-10.88964 -13.5,-10.96875 z M 2643.5,2577.7812 c -5.0305,0 -10.534,0.064 -16.5938,0.1876 -31.7692,0.6467 -64.4335,4.7662 -72.5937,9.125 -8.1601,4.3588 -22.0963,7.9062 -30.9687,7.9062 -8.8724,0 -17.3179,4.3154 -18.7813,9.5938 -14.8689,53.6329 -38.2811,127.4099 -43.8125,138.0937 -3.7961,7.3324 -6.9062,21.478 -6.9062,31.4375 0,19.9716 -15.3412,35.6124 -49.0626,50 -18.5265,7.9046 -24.335,7.4971 -35.4374,-2.5312 -17.0774,-15.425 -36.0856,-7.9481 -50.4688,19.8124 -6.2334,12.0311 -19.087,25.8551 -28.5625,30.7188 -9.4755,4.8638 -26.5891,17.5407 -38.0313,28.1875 l -20.8124,19.3437 -27.5313,-24.125 c -15.1473,-13.274 -33.5126,-24.125 -40.8125,-24.125 -20.5548,0 -55.4375,36.5651 -55.4375,58.125 0,37.4001 -39.9174,31.2642 -88.9375,-13.6874 -19.1832,-17.5924 -28.0325,-20.6922 -47.7812,-16.75 -13.3314,2.6611 -29.6452,13.064 -36.25,23.125 -9.3458,14.2359 -18.8483,18.2812 -42.8438,18.2812 -22.6521,0 -31.9126,3.5667 -34.9688,13.4375 -2.2877,7.3896 -7.3768,18.6035 -11.3124,24.9375 -3.9357,6.334 -10.5403,19.3115 -14.6563,28.8125 -8.9414,20.6399 -35.0972,22.7023 -60.6875,4.8125 -15.1902,-10.6192 -20.5883,-10.9475 -36.8125,-2.2812 -14.8472,7.9307 -22.1845,8.1739 -33.5937,1.0624 -13.0544,-8.137 -16.279,-5.3668 -30.25,26.1563 -12.463,28.1205 -18.3762,34.1475 -29.1563,29.75 -7.436,-3.0334 -24.7568,-8.7575 -38.5,-12.7187 -15.6256,-4.5039 -29.4034,-15.6956 -36.75,-29.875 -19.2469,-37.148 -72.875,-22.2238 -72.875,20.2812 0,21.7405 -11.0826,29.3122 -28.5937,19.5312 -8.5315,-4.7683 -18.2925,-4.7805 -27.125,-0.062 -9.7497,5.2078 -18.6972,3.9198 -30.5626,-4.375 -14.5806,-10.1931 -18.9742,-10.3131 -33.4062,-0.875 -14.3868,9.4085 -21.158,9.3173 -50.3438,-0.7188 -18.5399,-6.3753 -37.8911,-15.086 -43.0312,-19.3438 -6.457,-5.3485 -14.7408,-3.9797 -26.7812,4.4376 -9.5847,6.7004 -23.3044,12.1874 -30.5,12.1874 -7.1956,0 -23.3676,8.6309 -35.9376,19.1876 -25.9094,21.7595 -40.2496,23.6174 -69.4687,8.9687 -11.2297,-5.6299 -30.8077,-15.2674 -43.5,-21.4063 -17.8362,-8.6268 -24.3105,-18.0464 -28.5313,-41.5624 -17.4296,-97.1099 -19.4958,-99.5517 -52.74995,-61.75 -22.41231,25.4771 -26.31125,26.9634 -66.78125,25.3437 -41.31723,-1.6536 -43.90481,-3.0294 -66.6875,-35.3437 -13.036,-18.49 -31.33927,-38.683 -40.6875,-44.875 -15.635,-10.3563 -18.48153,-9.6405 -35.5,8.6874 -21.01323,22.6301 -37.37683,25.2411 -51.53125,8.2188 -8.70115,-10.4641 -11.21836,-10.3907 -23.65625,0.8438 -17.05321,15.4033 -118.644,23.4796 -134.125,10.6562 -5.59606,-4.6354 -19.51141,-26.3769 -30.9375,-48.2812 -24.83384,-47.6077 -31.12349,-52.392 -54.59375,-41.7188 -25.47006,11.5827 -48.8125,55.052 -48.8125,90.875 0,59.8085 -43.75444,40.9031 -68.71875,-29.6875 -10.99813,-31.099 -27.42396,-52.8256 -48.34375,-64 -21.32877,-11.3929 -36.78125,36.1549 -36.78125,113.125 0,62.8194 0.4263,64.3437 18.5,64.3437 13.50852,0 24.93817,9.6637 42.3125,35.8438 13.091,19.7259 23.78125,41.9021 23.78125,49.2812 0,7.3792 4.85131,23.2018 10.78125,35.1563 5.92994,11.9545 16.35479,34.8775 23.15625,50.9375 15.368,36.2878 27.625,30.3796 27.625,-13.3438 0,-37.1808 9.18963,-47.8052 67.3125,-77.7812 19.50963,-10.0618 48.46897,4.6702 61.09375,31.0938 16.32961,34.1778 31.21706,39.1553 53.8125,17.9687 15.71071,-14.7311 21.42517,-15.9828 40.375,-8.8437 19.96333,7.5208 23.60803,6.196 38.40625,-13.7813 19.67466,-26.5603 32.68839,-28.0167 43.03125,-4.8125 5.47036,12.2727 13.20551,16.6731 26.65625,15.1562 40.44861,-4.5614 92.375,27.6016 92.375,57.2188 0,26.5311 33.09617,40.4005 53.15625,22.2812 13.87207,-12.5301 15.97887,-12.5389 34.53125,-0.4062 19.05438,12.461 20.58948,12.207 43.90625,-7.375 21.7244,-18.2448 25.8002,-19.2212 40.375,-9.5625 15.2817,10.1272 23.8687,32.4188 33.0625,85.8437 7.4504,43.2937 25.2323,72.9376 43.7812,72.9376 9.5323,0 20.9118,3.5451 25.2813,7.9062 11.4165,11.3946 27.8742,2.7946 42.0313,-21.9688 6.7533,-11.8125 25.7964,-27.7442 42.3124,-35.4062 16.5162,-7.6621 36.0962,-19.2067 43.5,-25.6562 12.1325,-10.5689 14.9781,-10.3368 28.8438,2.1874 8.4615,7.643 15.375,17.9316 15.375,22.875 0,4.9436 8.6418,17.1138 19.2188,27.0313 10.5769,9.9175 19.25,22.4013 19.25,27.75 0,27.2406 41.1751,15.5627 50.4687,-14.3125 2.957,-9.5054 12.0867,-26.794 20.2813,-38.4062 22.2472,-31.5259 47.173,-27.6843 89.25,13.7187 41.5403,40.8751 57.179,41.3571 63.5937,1.9687 2.5354,-15.5682 8.3164,-32.8128 12.8437,-38.3124 4.5274,-5.4996 9.4432,-18.6309 10.9063,-29.1876 2.2248,-16.0532 7.3618,-19.6019 31.4687,-21.5937 30.879,-2.5513 42.8904,-16.2858 51.625,-59.0313 4.1043,-20.0856 8.4429,-23.3363 33.75,-25.4374 24.2915,-2.0169 34.014,2.0999 59.6876,25.25 l 30.6562,27.6562 30.7812,-17.2812 c 26.5022,-14.8665 33.0291,-15.8491 46.875,-7.2188 11.2923,7.0386 20.9396,7.8042 32.3438,2.5625 27.6974,-12.7304 95.9754,-26.271 104.875,-20.7813 4.6533,2.8705 11.6349,13.5411 15.5,23.6876 5.6707,14.8863 12.4957,18.4374 35.4375,18.4374 27.6444,1e-4 56.5625,-17.13 56.5625,-33.5 0,-10.3601 54.5321,-66.3124 64.625,-66.3124 4.1983,0 17.193,9.1746 28.9062,20.375 17.7861,17.0075 23.2564,18.737 33.125,10.5624 6.4992,-5.3834 11.8126,-14.6097 11.8126,-20.5312 0,-5.9214 7.7932,-14.0263 17.3124,-18 26.3262,-10.9898 40.5906,-24.4917 54.7188,-51.7812 7.9648,-15.3845 20.8606,-26.7615 33.875,-29.875 27.3952,-6.5542 65.6528,-25.7616 72.8125,-36.5626 3.1083,-4.6891 5.7193,-16.6261 5.7813,-26.5312 0.065,-9.9051 4.8805,-27.1981 10.6874,-38.4062 14.6652,-28.3066 27.9063,-71.962 27.9063,-92.0313 0,-9.2584 4.3052,-24.5563 9.5937,-34 14.4104,-25.7329 53.7233,-67.0937 63.7813,-67.0937 4.8604,0 15.0924,-6.8985 22.75,-15.3438 7.6576,-8.4453 23.3151,-15.375 34.7813,-15.375 11.4659,0 29.6492,6.9297 40.4062,15.375 10.7571,8.4453 26.198,15.3438 34.3125,15.3438 17.4862,0 45.5102,28.2395 49.4375,49.8124 1.5287,8.3968 9.6809,16.5665 18.0938,18.125 22.3578,4.142 32.2884,14.231 51.2187,52.0626 17.9411,35.8547 30.2569,39.6514 36.9375,11.4062 5.1824,-21.9112 18.344,-24.7032 22.1875,-4.7188 1.6241,8.4453 7.725,22.1708 13.5625,30.5 5.8376,8.3292 10.625,22.8197 10.625,32.1876 0,9.3678 3.4567,19.1402 7.6875,21.75 4.2308,2.6097 7.6875,18.9474 7.6875,36.2812 0,31.668 20.8366,90.4062 32.0625,90.4062 3.3079,0 11.1687,9.5128 17.4687,21.125 24.0035,44.2437 24.9484,44.903 42.3126,29.2188 8.7198,-7.8762 15.8672,-21.5597 15.9062,-30.4062 0.1028,-22.9104 44.1955,-96.7188 57.7812,-96.7188 18.7074,0 42.1563,29.1854 42.1563,52.4688 0,30.0488 8.5918,35.7868 23.6875,15.8124 l 12.75,-16.8437 20.5938,35.0625 c 24.5197,41.7596 39.4374,55.9631 46.5937,44.4062 9.1715,-14.8112 32.9129,-8.2673 47.4063,13.0626 13.4665,19.8185 17.3852,42.5322 30.3124,176.1874 5.0484,52.1971 18.5232,72.1182 37.9063,56.0626 6.3461,-5.2568 11.5313,-17.773 11.5313,-27.8126 -1e-4,-11.1072 4.5102,-18.25 11.5312,-18.25 8.0209,0 11.5312,8.0418 11.5312,26.4063 0,55.7753 26.3639,42.3946 60.6876,-30.8125 12.7255,-27.1419 26.5131,-49.3438 30.6562,-49.3438 4.1432,1e-4 12.969,10.9021 19.625,24.2188 9.2981,18.6027 12.125,49.4193 12.125,133.0625 0,59.8759 2.3045,111.1849 5.125,114 18.653,18.6173 32.2515,-17.8069 36.7812,-98.5313 9.6611,-172.1711 11.2068,-180.7305 35.5,-194.5937 12.2408,-6.9853 26.2567,-22.3513 31.1563,-34.125 8.5851,-20.6298 27.7778,-36.1563 44.6563,-36.1563 4.4521,0 13.1567,12.0958 19.3437,26.875 23.9983,57.3257 27.4375,31.942 27.4375,-203.4374 l 0,-230.3126 -25,-10.5624 c -23.0618,-9.7523 -26.03,-9.3249 -38.0938,5.7187 -7.1928,8.9694 -14.1062,30.1297 -15.375,47 -2.0612,27.4064 -4.7559,31.0857 -25.375,34.5937 -21.2409,3.614 -23.5335,7.1339 -28.8437,44.1876 -3.1731,22.141 -8.3894,58.1027 -11.5625,79.9374 -3.1731,21.8348 -9.9075,41.0839 -14.9688,42.75 -5.0614,1.6663 -19.768,-11.5432 -32.6874,-29.3437 -17.5041,-24.1172 -23.5,-40.7636 -23.5,-65.3125 0,-18.1192 -3.6145,-35.1817 -8.0313,-37.9062 -11.907,-7.3448 -43.7854,16.3022 -57.375,42.5312 -13.8616,26.7539 -30.515,29.5344 -42.5313,7.125 -11.8961,-22.1854 -25.9542,-14.6004 -30.5,16.4375 -5.185,35.4027 -25.1894,34.9967 -31.1874,-0.625 -5.0445,-29.9593 -25.6634,-72.9441 -38.875,-81.0937 -4.7395,-2.9236 -27.1584,-4.8963 -49.8126,-4.375 -33.6527,0.7743 -42.6739,-1.8342 -49.2812,-14.1563 -6.8287,-12.735 -10.9558,-13.7649 -26.6562,-6.625 -25.4495,11.5733 -41.0781,3.8289 -44.0313,-21.875 -4.4282,-38.5414 -27.1273,-26.7811 -54.5625,28.3125 -18.185,36.5179 -28.9608,49.9062 -40.2188,49.9062 -10.9603,0 -16.0858,-5.8899 -17.7812,-20.5312 -1.3088,-11.3033 -7.3425,-24.7012 -13.4375,-29.75 -6.095,-5.0487 -11.0937,-13.4 -11.0937,-18.5625 0,-5.1625 -6.8887,-15.61 -15.3126,-23.2187 -21.4924,-19.4131 -53.9062,-76.5636 -53.9062,-95.0313 0,-8.4999 -3.4568,-17.5778 -7.6875,-20.1875 -4.2308,-2.6098 -7.7187,-12.7409 -7.7187,-22.5312 -1e-4,-24.9561 -18.0325,-38.8439 -30.6876,-23.625 -13.3226,16.0221 -32.6078,14.5201 -48.2812,-3.75 -7.8286,-9.1256 -22.6804,-15.3438 -36.625,-15.3438 -12.905,0 -33.713,-7.5531 -46.2188,-16.7812 -16.6977,-12.3215 -28.6924,-15.8011 -63.9062,-15.8126 z"
       transform="translate(0,-2947.6379)"
       id="path3671"
       style="fill:#000000" />
  </g>
</svg>
