<?xml version="1.0" encoding="UTF-8" standalone="no"?>
<!-- Created with Inkscape (http://www.inkscape.org/) -->

<svg
   xmlns:dc="http://purl.org/dc/elements/1.1/"
   xmlns:cc="http://creativecommons.org/ns#"
   xmlns:rdf="http://www.w3.org/1999/02/22-rdf-syntax-ns#"
   xmlns:svg="http://www.w3.org/2000/svg"
   xmlns="http://www.w3.org/2000/svg"
   xmlns:xlink="http://www.w3.org/1999/xlink"
   version="1.1"
   width="4000"
   height="4000"
   id="svg2">
  <defs
     id="defs4" />
  <metadata
     id="metadata7">
    <rdf:RDF>
      <cc:Work
         rdf:about="">
        <dc:format>image/svg+xml</dc:format>
        <dc:type
           rdf:resource="http://purl.org/dc/dcmitype/StillImage" />
        <dc:title></dc:title>
      </cc:Work>
    </rdf:RDF>
  </metadata>
  <g
     transform="translate(0,2947.6379)"
     id="layer1">
    <path
       d="m 111.25,6.8125 c -8.65727,0.2271662 -16.2477,12.666844 -29.5,33.34375 -14.904366,23.2545 -39.477183,64.77605 -54.625,92.28125 -30.0240842,54.5173 -28.3846592,59.5 19.65625,59.5 l 22.4375,0 0,1857.4063 c 0,1678.3242 1.171355,1858.5985 12.09375,1869.5 10.922246,10.9012 191.19467,12.0624 1869.25,12.0624 l 1857.125,0 0,22.4063 c 0,12.3226 2.0723,27.7542 4.5937,34.3125 4.0074,10.4228 8.601,9.8918 36.5313,-4.3125 41.0068,-20.8546 128.7542,-75.7163 142.6563,-89.1875 14.424,-13.9768 7.7948,-19.8256 -87.5626,-77.0938 -83.7314,-50.2862 -96.2187,-50.8258 -96.2187,-4.1874 l 0,25.9374 -1826.9063,0 -1826.93745,0 0,-1823.4374 0,-1823.4063 25.96875,0 c 47.07927,0 46.75899,-12.8149 -2.46875,-95.25 C 138.87422,32.267822 123.90293,6.4804879 111.25,6.8125 z m 2058.1875,1206.25 c -15.2024,0 -37.4863,40.132 -100.1875,180.4063 -9.4374,21.1132 -30.2325,66.0314 -46.1875,99.8124 -15.9552,33.7812 -39.9777,85.5978 -53.375,115.1563 -13.3973,29.5585 -27.516,60.6484 -31.4063,69.0937 -3.8902,8.4454 -14.2683,34.0197 -23.0312,56.8126 -8.7629,22.7928 -22.6918,50.029 -30.9688,60.5312 -8.2768,10.5021 -15.0624,23.4215 -15.0624,28.7188 0,5.2974 -13.4404,36.8138 -29.875,70.0312 -16.4348,33.2173 -38.6018,81.095 -49.2813,106.4062 -10.6794,25.3113 -33.8396,77.1212 -51.4687,115.125 -17.6291,38.0039 -37.4484,81.1895 -44.0313,95.9688 -6.5828,14.7793 -30.2385,64.8946 -52.5625,111.3438 -70.1932,146.0499 -118.9375,249.8956 -118.9375,253.4374 0,5.2213 -52.4356,118.3197 -72.9375,157.3126 -9.9909,19.0019 -37.1266,77.7168 -60.3125,130.5 -63.3864,144.3008 -125.2772,280.6639 -158.5625,349.3437 -16.3719,33.7812 -36.7365,76.9668 -45.25,95.9687 -8.5135,19.002 -26.138,57.7045 -39.1875,86.0313 -13.0495,28.3268 -23.75,53.9894 -23.75,57 0,3.0106 -4.7543,10.9273 -10.5937,17.5937 -12.3632,14.1144 -66.3126,136.9855 -66.3126,151.0313 1e-4,5.2386 4.3367,11.2452 9.625,13.375 13.5337,5.4501 967.5075,5.8737 987.8126,0.4375 9.6572,-2.5855 18.7946,-13.0543 21.75,-24.875 2.8033,-11.2134 9.6354,-25.541 15.1874,-31.875 5.5523,-6.334 35.1414,-70.2775 65.75,-142.0625 30.6089,-71.785 62.0094,-142.5957 69.7813,-157.375 7.772,-14.7793 22.9187,-46.751 33.6563,-71.0313 10.7376,-24.2802 28.173,-62.6111 38.75,-85.1874 10.5769,-22.5764 19.2187,-43.8924 19.2187,-47.375 0,-3.4827 4.8308,-11.7711 10.7187,-18.4376 5.8879,-6.6664 30.5708,-58.7754 54.8438,-115.7812 24.2729,-57.0058 50.5838,-111.8983 58.5,-121.9688 7.9162,-10.0704 14.4062,-24.0624 14.4062,-31.0937 0,-7.0313 3.1261,-16.051 6.9376,-20.0625 3.8115,-4.0115 21.4603,-41.836 39.25,-84.0625 17.7897,-42.2265 36.8094,-81.9785 42.25,-88.3125 5.4405,-6.334 29.7622,-58.1505 54.0312,-115.1562 24.2691,-57.0058 56.1017,-128.2103 70.75,-158.2188 l 26.625,-54.5625 -16.0625,-35.2187 c -8.8438,-19.376 -16.0937,-37.7464 -16.0937,-40.8126 -1e-4,-3.066 -4.8565,-11.021 -10.7813,-17.6874 -5.9249,-6.6665 -20.0505,-34.5841 -31.4063,-62.0313 -11.3556,-27.4472 -48.3627,-106.8888 -82.25,-176.5625 -33.887,-69.6737 -74.7699,-154.3126 -90.8437,-188.0938 -66.1097,-138.9375 -112.2596,-235.6934 -157.4687,-330.1562 -26.2722,-54.8944 -51.7823,-108.4434 -56.6876,-119 -4.9052,-10.5566 -12.3922,-24.3847 -16.6562,-30.7188 -4.264,-6.3339 -11.1265,-21.0126 -15.25,-32.625 -4.8324,-13.6086 -13.0326,-21.0937 -23.0625,-21.0937 z m -865.3437,610.3437 c -9.1732,1e-4 -22.2213,21.6377 -44,72.9376 -17.0306,40.1151 -35.7933,78.396 -41.6876,85.0624 -5.8944,6.6665 -10.7187,14.7793 -10.7187,18.0313 0,6.1231 -3.4455,14.0878 -49.4375,113.9687 -15.1117,32.8183 -27.4688,62.5958 -27.4688,66.1563 1e-4,3.5606 -6.7069,14.9713 -14.9062,25.375 -8.1993,10.4037 -17.3069,28.3895 -20.2188,39.9687 -2.9118,11.5793 -15.1684,38.9438 -27.25,60.8126 -12.0815,21.8686 -22.048,44.2548 -22.125,49.75 -0.077,5.4951 -19.666,50.4131 -43.5312,99.8124 -23.86522,49.3994 -47.91066,100.1758 -53.4375,112.8438 -41.25523,94.5605 -69.17935,154.9061 -85.3125,184.2812 -17.00469,30.9621 -19.32319,36.0283 -56.4375,123.5938 -17.72161,41.8115 -41.98585,95.0254 -53.9375,118.25 -11.95165,23.2246 -31.00658,62.9454 -42.34375,88.2812 -11.33716,25.3359 -35.4062,77.1525 -53.46875,115.1563 -47.10554,99.1107 -67.35533,143.1391 -107.8125,234.1875 -19.70142,44.3378 -45.95365,101.0141 -58.3125,125.9688 -24.34316,49.153 -27.87601,70.1646 -12.84375,76.2187 13.99237,5.6355 471.46438,5.9588 486.125,0.3437 6.80931,-2.6079 25.72759,-32.816 42.03125,-67.1562 66.854,-140.8137 95.1019,-202.5558 124.8438,-272.7188 17.2087,-40.5964 37.664,-85.9082 45.4687,-100.6874 7.8048,-14.7793 21.6282,-44.1368 30.6875,-65.25 9.0592,-21.1133 29.7974,-66.0314 46.0938,-99.8126 37.2929,-77.3056 71.5086,-152.229 104.125,-227.9687 13.9932,-32.4945 32.2886,-72.2465 40.625,-88.3125 8.3365,-16.0659 18.6994,-37.8496 23.0624,-48.4062 13.0238,-31.5121 100.7284,-216.022 120.9063,-254.375 10.2977,-19.5734 18.7187,-46.0658 18.7187,-58.875 0,-18.6557 -44.2253,-126.6511 -76.0937,-185.7813 -23.3339,-43.2948 -57.8785,-113.73 -84.7187,-172.75 -54.243,-119.2769 -82.6359,-168.9063 -96.625,-168.9063 z M 2881,1996.1562 c -9.3326,0 -65.625,102.8804 -65.625,119.9376 0,4.109 -17.3814,41.4528 -92.5,198.6874 -16.1389,33.7812 -38.6489,83.8115 -50.0312,111.1876 -11.3822,27.376 -27.2574,58.0771 -35.25,68.2187 -7.9929,10.1417 -14.5313,24.1874 -14.5313,31.2187 0,7.0314 -3.0948,16.0823 -6.9063,20.0938 -3.8115,4.0115 -21.5441,41.836 -39.4062,84.0625 -32.9338,77.8566 -68.3853,154.5233 -141.9375,307.0937 -56.6257,117.4595 -88.6563,186.7236 -88.6563,191.6563 1e-4,3.8428 -37.0436,83.657 -93.0312,200.5 -12.3001,25.6696 -22.3438,49.1063 -22.3438,52.0625 1e-4,5.468 -76.6748,168.5452 -96.7187,205.7188 -13.5418,25.1147 -14.0431,42.3668 -1.375,47.4687 5.2885,2.1298 347.5541,4.1668 760.5937,4.5 634.2099,0.5119 752.3718,-1.064 759.9063,-10.125 6.8982,-8.2959 5.5664,-17.443 -5.9063,-40.3125 -15.5045,-30.9066 -45.7258,-94.6912 -84.9374,-179.2812 -12.7232,-27.4473 -34.5456,-71.0137 -48.5,-96.7813 -13.9543,-25.7676 -35.7484,-70.6544 -48.4063,-99.7813 -12.6579,-29.1268 -42.9512,-93.4496 -67.3125,-142.9374 -24.3613,-49.488 -44.2812,-93.5498 -44.2812,-97.9063 -1e-4,-4.3564 -13.7778,-34.6862 -30.625,-67.4063 -27.914,-54.2132 -51.4221,-102.8375 -188.25,-389.625 -24.1757,-50.6717 -55.4203,-114.584 -69.4376,-142.0312 -14.0174,-27.4472 -39.7002,-83.4992 -57.0937,-124.5312 -17.3935,-41.0322 -44.8251,-99.7471 -60.9375,-130.5 -16.1124,-30.753 -35.0976,-70.6163 -42.1875,-88.5626 -7.1045,-17.9831 -18.0108,-32.625 -24.3125,-32.625 z"
       transform="translate(0,-2947.6379)"
       id="path3756"
       style="fill:#000000" />
  </g>
</svg>
