<?xml version="1.0" encoding="UTF-8" standalone="no"?>
<!-- Created with Inkscape (http://www.inkscape.org/) -->

<svg
   xmlns:dc="http://purl.org/dc/elements/1.1/"
   xmlns:cc="http://creativecommons.org/ns#"
   xmlns:rdf="http://www.w3.org/1999/02/22-rdf-syntax-ns#"
   xmlns:svg="http://www.w3.org/2000/svg"
   xmlns="http://www.w3.org/2000/svg"
   version="1.1"
   width="4000"
   height="4000"
   id="svg2">
  <defs
     id="defs4" />
  <metadata
     id="metadata7">
    <rdf:RDF>
      <cc:Work
         rdf:about="">
        <dc:format>image/svg+xml</dc:format>
        <dc:type
           rdf:resource="http://purl.org/dc/dcmitype/StillImage" />
        <dc:title></dc:title>
      </cc:Work>
    </rdf:RDF>
  </metadata>
  <g
     transform="matrix(4.0069144,0,0,4.0138325,-6.914418,-217.07929)"
     id="layer1">
    <path
       d="m 2.1648941,769.81534 0.4392726,-280.82121 280.3819433,0 280.38195,0 0,280.38194 0,280.38193 -280.82122,0.4393 -280.8212184,0.4393 0.4392725,-280.82126 z M 624.06021,1048.4559 c -0.45696,-1.1935 -0.62776,-43.5764 -0.37955,-94.18399 l 0.45128,-92.01389 184.02778,-0.47657 c 101.21528,-0.26211 185.78559,-0.0519 187.93403,0.4671 l 3.90625,0.94367 0,93.71692 0,93.71696 -187.55448,0 c -148.44309,0 -187.72774,-0.4526 -188.38531,-2.1702 z m 0.003,-246.52774 c -0.45514,-1.19358 -0.62594,-72.09202 -0.37953,-157.55209 l 0.44799,-155.38194 184.02777,-0.47657 c 101.21528,-0.26211 185.78559,-0.0519 187.93403,0.46711 l 3.90626,0.94366 0,156.03118 c 0,140.67849 -0.27022,156.13488 -2.74617,157.08498 -1.51058,0.5796 -85.91009,1.0538 -187.55467,1.0538 -146.24792,0 -184.98099,-0.45279 -185.63587,-2.17013 z M 2.8935186,429.67699 C 2.2569444,429.04043 1.7361111,344.27131 1.7361111,241.30119 l 0,-187.218393 187.9340289,0.441776 187.93403,0.441777 0.44191,185.57649 c 0.32312,135.68799 -0.084,186.21028 -1.51466,187.93403 -1.62583,1.95901 -33.2733,2.35754 -187.21854,2.35754 -101.894073,0 -185.7827875,-0.52084 -186.4193614,-1.15742 z M 437.70906,428.48215 c -1.43635,-1.73071 -1.84272,-52.00802 -1.51903,-187.93931 l 0.44191,-185.57649 280.82372,-0.439273 280.82373,-0.439273 -0.44179,187.939276 -0.44177,187.93927 -278.86291,0.43929 c -233.49499,0.36783 -279.18195,0.0549 -280.82386,-1.92349 z"
       id="path3050"
       style="fill:#000000" />
  </g>
</svg>
